<svg xmlns="http://www.w3.org/2000/svg" viewBox="0 0 1000 188.1"><title>Asset 3</title><g id="Layer_2" data-name="Layer 2"><g id="Layer_1-2" data-name="Layer 1"><path d="M532.7,1.9c-1.3-2.5-3.3-2.5-4.6,0L433.6,178.6c-1.3,2.6,0,4.6,2.8,4.6h11.4a8.9,8.9,0,0,0,7.4-4.6L528.4,39.8c1.1-1.9,2.9-1.9,4,0l72.4,138.8a8.9,8.9,0,0,0,7.4,4.6h11.4c2.8,0,4.1-2,2.8-4.6Z" fill="#2a4178"/><path d="M408.5,72.1a7.5,7.5,0,0,0-5.9,3.4l-37.4,72.2c-1,2-2.7,1.9-3.7-.1l-37.2-72a7.2,7.2,0,0,0-5.9-3.5H306c-2.2,0-3.2,1.5-2.2,3.5l57.7,107.3c1,2,2.6,1.9,3.6-.1L422.9,75.6c1-2,0-3.5-2.3-3.5Z" fill="#2a4178"/><path d="M217.5,67c-33.2,0-60.1,27.1-60.1,60.5s26.9,60.6,60.1,60.6,60.9-27.1,60.9-60.6S250.7,67,217.5,67m0,104.9c-24.1,0-43.6-19.9-43.6-44.4s19.5-44.4,43.6-44.4a44.4,44.4,0,0,1,0,88.8" fill="#2a4178"/><path d="M745.5,69.4H708.1c-13.3.1-20.4,16.1-23.9,25.9V75.9a4.1,4.1,0,0,0-4.1-4.1H672a4,4,0,0,0-4,4.1V179.2a4,4,0,0,0,4,4h8.1a4.1,4.1,0,0,0,4.1-4V109.8c0-13.8,10.4-25.9,24.2-25.9h37.1a4,4,0,0,0,4-4V73.4a4,4,0,0,0-4-4" fill="#2a4178"/><path d="M836.3,171.1h-8.5a23.8,23.8,0,0,1-24.2-24.2v-63h32.3a4,4,0,0,0,4-4V73.4a4,4,0,0,0-4-4H803.6V35.3a4.1,4.1,0,0,0-4-4.1h-8.1a4.1,4.1,0,0,0-4,4.1V149.1a39.9,39.9,0,0,0,40.3,38.1h8.5a4,4,0,0,0,4-4v-8.1a4,4,0,0,0-4-4" fill="#2a4178"/><path d="M939.5,67c-33,0-60.6,27.1-60.6,60.5s27.6,60.6,60.6,60.6a60.6,60.6,0,0,0,0-121.1m0,104.9a44.4,44.4,0,1,1,0-88.8c24,0,44.4,19.9,44.4,44.4s-20.4,44.4-44.4,44.4" fill="#2a4178"/><path d="M117.8,105.6C116.9,83.9,99.4,69,77.5,68.9h-38c-14.3.2-20.6,14.8-23.4,26V77a4.1,4.1,0,0,0-4-4.1H4A4.1,4.1,0,0,0,0,77V180.3a4,4,0,0,0,4,4h8.1a4,4,0,0,0,4-4V103.6c1.8-11.8,11.5-20.2,24-20.2H77.2c13.7,0,24.5,10.3,24.5,24v72.9a4,4,0,0,0,4,4h8.1a4,4,0,0,0,4-4V105.6" fill="#2a4178"/><path d="M492.9,179.2c-1.1,2.3,0,4.3,2.6,4.3h69c2.6,0,3.7-2,2.6-4.3l-34.7-69.3c-1.1-2.3-3-2.3-4.1,0Z" fill="#0490c4"/></g></g></svg>