<?xml version="1.0" encoding="utf-8"?>
<!-- Generator: Adobe Illustrator 24.0.3, SVG Export Plug-In . SVG Version: 6.00 Build 0)  -->
<svg version="1.1" id="Layer_1" xmlns="http://www.w3.org/2000/svg" xmlns:xlink="http://www.w3.org/1999/xlink" x="0px" y="0px"
	 width="40px" height="37.9px" viewBox="0 0 40 37.9" enable-background="new 0 0 40 37.9" xml:space="preserve">
<g>
	<g>
		<path fill="#1A4981" d="M20.6,0.4c-0.3-0.5-0.7-0.5-1,0L0.1,36.9c-0.3,0.5,0,0.9,0.6,0.9H3c0.6,0,1.3-0.4,1.5-0.9L19.7,8.2
			c0.2-0.4,0.6-0.4,0.8,0l14.9,28.7c0.3,0.5,0.9,0.9,1.5,0.9h2.4c0.6,0,0.8-0.4,0.6-0.9L20.6,0.4z"/>
		<path fill="#0092C5" d="M12.3,37c-0.2,0.5,0,0.9,0.5,0.9h14.3c0.5,0,0.8-0.4,0.5-0.9l-7.2-14.3c-0.2-0.5-0.6-0.5-0.9,0L12.3,37z"
			/>
	</g>
</g>
</svg>
