<?xml version="1.0" encoding="utf-8"?>
<!-- Generator: Adobe Illustrator 24.0.3, SVG Export Plug-In . SVG Version: 6.00 Build 0)  -->
<svg version="1.1" id="Layer_1" xmlns="http://www.w3.org/2000/svg" xmlns:xlink="http://www.w3.org/1999/xlink" x="0px" y="0px"
	 viewBox="0 0 100 100" style="enable-background:new 0 0 100 100;" xml:space="preserve">
<style type="text/css">
	.st0{fill:none;stroke:#009EE2;stroke-width:1.5;stroke-miterlimit:10;}
	.st1{fill:#009EE2;}
	.st2{fill:none;stroke:#2A4178;stroke-width:1.5;stroke-miterlimit:10;}
</style>
<line class="st0" x1="50.3" y1="29.2" x2="50.3" y2="33.9"/>
<line class="st0" x1="23" y1="58.6" x2="27.7" y2="58.6"/>
<line class="st0" x1="73" y1="58.6" x2="77.7" y2="58.6"/>
<line class="st0" x1="30.6" y1="38.4" x2="33.8" y2="41.7"/>
<line class="st0" x1="67.1" y1="41.5" x2="70.4" y2="38.2"/>
<g>
	<g>
		<circle class="st1" cx="50.3" cy="63.4" r="2.5"/>
		<line class="st0" x1="50.2" y1="45.1" x2="50.2" y2="61.1"/>
	</g>
	<path class="st2" d="M50.2,24.6c-18.8,0-34,15.2-34,34c0,6.2,1.7,12,4.6,17l58.8,0c2.9-5,4.6-10.8,4.6-17
		C84.1,39.8,68.9,24.6,50.2,24.6z"/>
	<path class="st2" d="M50.2,29.3c-15.3,0-27.7,12.4-27.7,27.7c0,5,1.4,9.8,3.7,13.9l47.9,0c2.4-4.1,3.7-8.8,3.7-13.9
		C77.8,41.7,65.4,29.3,50.2,29.3z"/>
</g>
</svg>
