<?xml version="1.0" encoding="utf-8"?>
<!-- Generator: Adobe Illustrator 24.0.3, SVG Export Plug-In . SVG Version: 6.00 Build 0)  -->
<svg version="1.1" id="Challenges" xmlns="http://www.w3.org/2000/svg" xmlns:xlink="http://www.w3.org/1999/xlink" x="0px" y="0px"
	 width="100px" height="100px" viewBox="0 0 100 100" enable-background="new 0 0 100 100" xml:space="preserve">
<g>
	<g>
		<path fill="none" stroke="#314B81" stroke-miterlimit="10" d="M71.5,23.5C66,19.1,59,16.3,51.4,16.1c-18.8-0.7-34.5,14-35.2,32.8
			S30.3,83.4,49,84s34.5-14,35.2-32.8c0.1-3.6-0.3-7.1-1.3-10.5"/>
		<path fill="none" stroke="#314B81" stroke-miterlimit="10" d="M68.6,32.4c-4.6-4.8-11.2-7.8-18.4-7.8c-14.1,0-25.5,11.4-25.5,25.5
			s11.4,25.5,25.5,25.5s25.5-11.4,25.5-25.5c0-2.3-0.3-4.6-0.9-6.8"/>
		<path fill="none" stroke="#314B81" stroke-miterlimit="10" d="M62.3,38.1c-2.9-2.9-6.8-4.8-11.2-5c-9.4-0.5-17.4,6.7-17.9,16.1
			C32.8,58.5,40,66.5,49.3,67c9.4,0.5,17.4-6.7,17.9-16.1c0.1-1.8-0.1-3.5-0.5-5.2"/>
		<path fill="none" stroke="#314B81" stroke-miterlimit="10" d="M56.5,44.3c-1.6-1.7-3.8-2.8-6.3-2.8c-4.7,0-8.5,3.8-8.5,8.5
			s3.8,8.5,8.5,8.5s8.5-3.8,8.5-8.5c0-0.6-0.1-1.2-0.2-1.7"/>
	</g>
	<g>
		<line fill="none" stroke="#009EE2" stroke-width="1.5" stroke-miterlimit="10" x1="77.2" y1="23.7" x2="50.3" y2="49.8"/>
		<polygon fill="#009EE2" points="77.1,29.7 82.8,24.1 76.8,24 77,17.9 71.2,23.5 67.6,33 		"/>
	</g>
	<g>
		<line fill="none" stroke="#009EE2" stroke-width="1.5" stroke-miterlimit="10" x1="77.2" y1="23.7" x2="50.3" y2="49.8"/>
		<polygon fill="none" stroke="#009EE2" stroke-width="1.5" stroke-miterlimit="10" points="77.1,29.7 82.8,24.1 76.8,24 77,17.9 
			71.2,23.5 67.6,33 		"/>
		<polyline fill="#009EE2" points="67.6,33 77.1,29.7 82.8,24.1 		"/>
		<polyline fill="#009EE2" points="67.6,33 77.1,29.7 82.8,24.1 		"/>
	</g>
</g>
</svg>
