<?xml version="1.0" encoding="utf-8"?>
<!-- Generator: Adobe Illustrator 24.0.3, SVG Export Plug-In . SVG Version: 6.00 Build 0)  -->
<svg version="1.1" id="Numbers" xmlns="http://www.w3.org/2000/svg" xmlns:xlink="http://www.w3.org/1999/xlink" x="0px" y="0px"
	 width="50px" height="50px" viewBox="0 0 100 100" enable-background="new 0 0 100 100" xml:space="preserve">
<g>
	<g>
		<path fill="#149BD7" d="M28.2,40.3c0,4.7-3.1,10.3-7,10.3s-7-5.6-7-10.3s3.1-6.7,7-6.7S28.2,35.6,28.2,40.3z"/>
		<path fill="#149BD7" d="M20.2,66.5H4.1v-1.1c0-6.7,5.4-12.1,12.1-12.1l0,0c1.3,1.9,3,3.3,4.9,3.3s3.7-1.4,4.9-3.3l0,0
			c3.4,0,6.4,1.4,8.6,3.6l-6.7,2.4L22.1,64L20.2,66.5z"/>
	</g>
	<g>
		<path fill="#149BD7" d="M85.9,40.3c0,4.7-3.1,10.3-7,10.3s-7-5.6-7-10.3s3.1-6.7,7-6.7C82.8,33.5,85.9,35.6,85.9,40.3z"/>
		<path fill="#149BD7" d="M65,57.2c2.2-2.4,5.4-3.9,8.9-3.9l0,0c1.3,1.9,3,3.3,4.9,3.3s3.7-1.4,4.9-3.3l0,0
			c6.7,0,12.1,5.4,12.1,12.1v1.1h-17l-3.4-3.9l-7.8-4.4L65,57.2z"/>
	</g>
	<g>
		<path fill="none" stroke="#294179" stroke-width="2.5" stroke-miterlimit="10" d="M63.5,30.6c0,9.4-6.3,20.5-14.1,20.5
			s-14-11.1-14-20.5s6.3-13.5,14.1-13.5S63.5,21.2,63.5,30.6z"/>
		<path fill="none" stroke="#294179" stroke-width="2.5" stroke-miterlimit="10" d="M59.3,56.5c-2.5,3.9-6,6.6-9.9,6.6
			s-7.3-2.7-9.9-6.6l0,0c-13.3,0-24.1,10.8-24.1,24.1v2.3h68v-2.3C83.5,67.3,72.6,56.5,59.3,56.5L59.3,56.5z"/>
	</g>
</g>
</svg>
