<?xml version="1.0" encoding="utf-8"?>
<!-- Generator: Adobe Illustrator 24.0.3, SVG Export Plug-In . SVG Version: 6.00 Build 0)  -->
<svg version="1.1" id="no_results" xmlns="http://www.w3.org/2000/svg" xmlns:xlink="http://www.w3.org/1999/xlink" x="0px" y="0px"
	 width="100px" height="100px" viewBox="0 0 100 100" enable-background="new 0 0 100 100" xml:space="preserve">
<g>
	<g>
		<g>
			<path fill="none" stroke="#2B4279" stroke-width="1.5" stroke-miterlimit="10" d="M64.2,52.6l3.9,3.4c1.4,1.2,1.5,3.3,0.3,4.7
				l-6.8,7.8c-1.2,1.4-3.3,1.5-4.7,0.3l-3.9-3.4"/>
			<path fill="none" stroke="#2B4279" stroke-width="1.5" stroke-miterlimit="10" d="M67.8,61.3l16.8,14.5c1.4,1.2,1.5,3.3,0.3,4.7
				l-1.2,1.4c-1.2,1.4-3.3,1.5-4.7,0.3L62.3,67.8"/>
		</g>
	</g>
	<line fill="none" stroke="#009EE2" stroke-width="5" stroke-miterlimit="10" x1="15.2" y1="68.7" x2="66.2" y2="17.7"/>
	<path fill="#2B4279" d="M60.8,29.1c2.9,4.1,4.4,9,4.4,14.1c0,13.6-11.1,24.7-24.7,24.7c-5.1,0-9.9-1.5-14-4.4l-1.1,1.1
		c4.4,3.1,9.7,4.8,15.1,4.8c14.5,0,26.2-11.8,26.2-26.2c0-5.5-1.7-10.7-4.8-15.1L60.8,29.1z"/>
	<path fill="#2B4279" d="M20.3,57.5c-3-4.2-4.5-9.1-4.5-14.3c0-13.6,11.1-24.8,24.8-24.8c5.2,0,10.1,1.6,14.3,4.5l1.1-1.1
		c-4.5-3.2-9.8-5-15.3-5c-14.5,0-26.2,11.8-26.2,26.3c0,5.6,1.7,10.9,5,15.3L20.3,57.5z"/>
	<path fill="#2B4279" d="M23.3,54.4c-2.2-3.3-3.3-7.2-3.3-11.2c0-11.3,9.2-20.5,20.5-20.5c4,0,7.9,1.2,11.2,3.3l1.1-1.1
		c-3.6-2.5-7.9-3.8-12.3-3.8c-12.1,0-22,9.9-22,22c0,4.4,1.3,8.7,3.8,12.3L23.3,54.4z"/>
	<path fill="#2B4279" d="M57.8,32.2c2.1,3.3,3.2,7.1,3.2,11c0,11.3-9.2,20.5-20.5,20.5c-3.9,0-7.7-1.1-11-3.2l-1.1,1.1
		c3.6,2.4,7.7,3.6,12.1,3.6c12.1,0,22-9.9,22-22c0-4.3-1.3-8.5-3.6-12.1L57.8,32.2z"/>
</g>
</svg>
