<?xml version="1.0" encoding="utf-8"?>
<!-- Generator: Adobe Illustrator 24.0.3, SVG Export Plug-In . SVG Version: 6.00 Build 0)  -->
<svg version="1.1" xmlns="http://www.w3.org/2000/svg" xmlns:xlink="http://www.w3.org/1999/xlink" x="0px" y="0px" width="100px"
	 height="100px" viewBox="0 0 100 100" enable-background="new 0 0 100 100" xml:space="preserve">
<g id="Testimonial" display="none">
	<g display="inline">
		<g>
			<line fill="none" stroke="#294179" stroke-width="1.5" stroke-miterlimit="10" x1="33.5" y1="33.7" x2="50.5" y2="33.7"/>
			<line fill="none" stroke="#294179" stroke-width="1.5" stroke-miterlimit="10" x1="33.5" y1="49.5" x2="50.5" y2="49.5"/>
			<line fill="none" stroke="#294179" stroke-width="1.5" stroke-miterlimit="10" x1="33.5" y1="66.5" x2="50.5" y2="66.5"/>
		</g>
		<g>
			<path fill="none" stroke="#294179" stroke-width="1.5" stroke-miterlimit="10" d="M50,84.1H10.7c-2,0-3.5-1.6-3.5-3.5v-61
				c0-2,1.6-3.5,3.5-3.5h60.9c2,0,3.5,1.6,3.5,3.5V33"/>
			<g>
				<polygon fill="#1D9CD7" points="75.3,51.8 80.4,62.1 91.8,63.8 83.6,71.8 85.5,83.1 75.3,77.8 65.2,83.1 67.1,71.8 58.9,63.8 
					70.3,62.1 				"/>
			</g>
		</g>
	</g>
</g>
<g id="Results" display="none">
	<g display="inline">
		<line fill="none" stroke="#294179" stroke-width="1.5" stroke-miterlimit="10" x1="16" y1="76.3" x2="84" y2="76.3"/>
		<line fill="none" stroke="#294179" stroke-width="1.5" stroke-miterlimit="10" x1="19.4" y1="58.3" x2="39.4" y2="41.3"/>
		<line fill="none" stroke="#294179" stroke-width="1.5" stroke-miterlimit="10" x1="63.4" y1="57.3" x2="44.4" y2="41.3"/>
		<line fill="none" stroke="#294179" stroke-width="1.5" stroke-miterlimit="10" x1="68.4" y1="57.3" x2="81.7" y2="31.2"/>
		<g>
			<circle fill="#1D9CD7" cx="16.9" cy="60.3" r="4.2"/>
		</g>
		<g>
			<circle fill="#1D9CD7" cx="41.9" cy="39.3" r="4.2"/>
		</g>
		<g>
			<circle fill="#1D9CD7" cx="83.4" cy="27.3" r="4.2"/>
		</g>
		<g>
			<circle fill="#1D9CD7" cx="65.9" cy="60.3" r="4.2"/>
		</g>
	</g>
</g>
<g id="Challenges" display="none">
	<g display="inline">
		<g>
			<path fill="none" stroke="#314B81" stroke-miterlimit="10" d="M71.5,23.5C66,19.1,59,16.3,51.4,16.1c-18.8-0.7-34.5,14-35.2,32.8
				S30.3,83.4,49,84s34.5-14,35.2-32.8c0.1-3.6-0.3-7.1-1.3-10.5"/>
			<path fill="none" stroke="#314B81" stroke-miterlimit="10" d="M68.6,32.4c-4.6-4.8-11.2-7.8-18.4-7.8
				c-14.1,0-25.5,11.4-25.5,25.5c0,14.1,11.4,25.5,25.5,25.5s25.5-11.4,25.5-25.5c0-2.3-0.3-4.6-0.9-6.8"/>
			<path fill="none" stroke="#314B81" stroke-miterlimit="10" d="M62.3,38.1c-2.9-2.9-6.8-4.8-11.2-5c-9.4-0.5-17.4,6.7-17.9,16.1
				C32.8,58.5,40,66.5,49.3,67c9.4,0.5,17.4-6.7,17.9-16.1c0.1-1.8-0.1-3.5-0.5-5.2"/>
			<path fill="none" stroke="#314B81" stroke-miterlimit="10" d="M56.5,44.3c-1.6-1.7-3.8-2.8-6.3-2.8c-4.7,0-8.5,3.8-8.5,8.5
				c0,4.7,3.8,8.5,8.5,8.5s8.5-3.8,8.5-8.5c0-0.6-0.1-1.2-0.2-1.7"/>
		</g>
		<g>
			<line fill="none" stroke="#009EE2" stroke-width="1.5" stroke-miterlimit="10" x1="77.2" y1="23.7" x2="50.3" y2="49.8"/>
			<polygon fill="#009EE2" points="77.1,29.7 82.8,24.1 76.8,24 77,17.9 71.2,23.5 67.6,33 			"/>
		</g>
		<g>
			<line fill="none" stroke="#009EE2" stroke-width="1.5" stroke-miterlimit="10" x1="77.2" y1="23.7" x2="50.3" y2="49.8"/>
			<polygon fill="none" stroke="#009EE2" stroke-width="1.5" stroke-miterlimit="10" points="77.1,29.7 82.8,24.1 76.8,24 77,17.9 
				71.2,23.5 67.6,33 			"/>
			<polyline fill="#009EE2" points="67.6,33 77.1,29.7 82.8,24.1 			"/>
			<polyline fill="#009EE2" points="67.6,33 77.1,29.7 82.8,24.1 			"/>
		</g>
	</g>
</g>
<g id="User_Goals" display="none">
	<g display="inline">
		<g>
			<g>
				<polyline fill="#009EE2" points="50.1,25.4 67.1,25.4 62.7,21.2 67.1,16.9 50.1,16.9 				"/>
				<line fill="none" stroke="#009EE2" stroke-width="1.5" stroke-miterlimit="10" x1="50.6" y1="16.9" x2="50.6" y2="33.9"/>
			</g>
			<g>
				<polyline fill="none" stroke="#2A4178" stroke-width="1.5" stroke-miterlimit="10" points="37.7,59.4 33.2,50.4 17.2,82.4 
					26.2,82.4 				"/>
				<polyline fill="none" stroke="#2A4178" stroke-width="1.5" stroke-miterlimit="10" points="62.7,57.4 50.7,33.4 37.7,59.4 
					49.2,82.4 50.2,82.4 				"/>
				<polyline fill="none" stroke="#2A4178" stroke-width="1.5" stroke-miterlimit="10" points="26.2,82.4 49.2,82.4 37.7,59.4 				
					"/>
				<polyline fill="none" stroke="#2A4178" stroke-width="1.5" stroke-miterlimit="10" points="75.3,82.4 83.2,82.4 62.7,41.4 
					58.6,49.5 				"/>
				<polyline fill="none" stroke="#2A4178" stroke-width="1.5" stroke-miterlimit="10" points="50.2,82.4 75.2,82.4 62.7,57.4 				
					"/>
			</g>
			<polyline fill="none" stroke="#2A4178" stroke-width="1.5" stroke-miterlimit="10" points="36.2,56.4 33.2,60.4 30.2,56.4 			"/>
			<polyline fill="none" stroke="#2A4178" stroke-width="1.5" stroke-miterlimit="10" points="45.6,44 48.2,48.4 51.2,45.4 
				54.2,51.4 56.2,44.4 			"/>
			<polyline fill="none" stroke="#2A4178" stroke-width="1.5" stroke-miterlimit="10" points="59.2,47.4 64.2,51.4 67.2,50.4 			"/>
		</g>
	</g>
</g>
<g id="Business_Requirements" display="none">
	<g display="inline">
		<polyline fill="none" stroke="#2A4178" stroke-width="1.5" stroke-miterlimit="10" points="25.3,17.2 16.8,17.2 16.8,34.2 
			33.8,34.2 33.8,25.7 		"/>
		<polyline fill="none" stroke="#2A4178" stroke-width="1.5" stroke-miterlimit="10" points="33.8,50.5 33.8,59 16.8,59 16.8,42 
			25.3,42 		"/>
		<rect x="16.8" y="66.9" fill="none" stroke="#2A4178" stroke-width="1.5" stroke-miterlimit="10" width="17" height="17"/>
		<polyline fill="none" stroke="#2A4178" stroke-width="1.5" stroke-miterlimit="10" points="33.8,41 25.6,51.2 21.5,47.9 		"/>
		<polyline fill="none" stroke="#2A4178" stroke-width="1.5" stroke-miterlimit="10" points="33.8,15.9 25.6,26.1 21.5,22.8 		"/>
		<path fill="none" stroke="#2A4178" stroke-width="1.5" stroke-miterlimit="10" d="M34.8,26.2"/>
		<line fill="none" stroke="#009EE2" stroke-width="1.5" stroke-miterlimit="10" x1="50" y1="26.3" x2="84" y2="26.3"/>
		<line fill="none" stroke="#009EE2" stroke-width="1.5" stroke-miterlimit="10" x1="50" y1="51.3" x2="84" y2="51.3"/>
		<line fill="none" stroke="#009EE2" stroke-width="1.5" stroke-miterlimit="10" x1="50" y1="76.3" x2="84" y2="76.3"/>
	</g>
</g>
<g id="Motivation" display="none">
	<g display="inline">
		<g>
			<g>
				<path fill="#009EE2" d="M45.2,40.7c1.5,0,2.8,1.2,2.8,2.8v2.8h-2.8c-1.5,0-2.8-1.2-2.8-2.8S43.6,40.7,45.2,40.7 M45.2,39.2
					c-2.3,0-4.2,1.9-4.2,4.2s1.9,4.2,4.2,4.2h4.2v-4.2C49.4,41.1,47.5,39.2,45.2,39.2L45.2,39.2z"/>
			</g>
			<line fill="none" stroke="#009EE2" stroke-width="1.5" stroke-miterlimit="10" x1="49.4" y1="47.4" x2="49.4" y2="72.4"/>
			<g>
				<path fill="#009EE2" d="M62.2,40.7c1.5,0,2.8,1.2,2.8,2.8s-1.2,2.8-2.8,2.8h-2.8v-2.8C59.4,41.9,60.6,40.7,62.2,40.7 M62.2,39.2
					c-2.3,0-4.2,1.9-4.2,4.2v4.2h4.2c2.3,0,4.2-1.9,4.2-4.2S64.5,39.2,62.2,39.2L62.2,39.2z"/>
			</g>
			<line fill="none" stroke="#009EE2" stroke-width="1.5" stroke-miterlimit="10" x1="57.9" y1="47.4" x2="57.9" y2="72.4"/>
			<line fill="none" stroke="#009EE2" stroke-width="1.5" stroke-miterlimit="10" x1="49.4" y1="47.7" x2="58.2" y2="47.7"/>
		</g>
		<path fill="none" stroke="#2A4178" stroke-width="1.5" stroke-miterlimit="10" d="M50,22.9c-10.8,0-20.1,6.9-23.5,16.5l-1.4,10.7
			l-0.7,6.3h2.1h6.9v10.2v5.8H45h10h11.4l7-16c1-2.7,1.6-5.5,1.6-8.5C75,34.1,63.8,22.9,50,22.9z"/>
		<path fill="#009EE2" d="M66.4,80.9c0,4.7-3.8,8.5-8.5,8.5s-8.5-3.8-8.5-8.5"/>
		<rect x="41.4" y="72.7" fill="none" stroke="#2A4178" stroke-width="1.5" stroke-miterlimit="10" width="25" height="8.5"/>
		<line fill="none" stroke="#2A4178" stroke-width="1.5" stroke-miterlimit="10" x1="41.4" y1="76.9" x2="58.4" y2="76.9"/>
		<line fill="none" stroke="#2A4178" stroke-width="1.5" stroke-miterlimit="10" x1="77.7" y1="39.7" x2="86.7" y2="37.1"/>
		<line fill="none" stroke="#2A4178" stroke-width="1.5" stroke-miterlimit="10" x1="22.7" y1="39.7" x2="13.7" y2="37.1"/>
		<line fill="none" stroke="#2A4178" stroke-width="1.5" stroke-miterlimit="10" x1="31.5" y1="25.7" x2="24.8" y2="19.2"/>
		<line fill="none" stroke="#2A4178" stroke-width="1.5" stroke-miterlimit="10" x1="68.8" y1="25.7" x2="75.5" y2="19.2"/>
		<line fill="none" stroke="#2A4178" stroke-width="1.5" stroke-miterlimit="10" x1="50.4" y1="10.7" x2="50.4" y2="19.2"/>
	</g>
</g>
<g id="teamwork" display="none">
	<g display="inline">
		<g>
			<path fill="none" stroke="#2A4178" stroke-width="1.5" stroke-miterlimit="10" d="M84.3,66.7v13.7c0,1.9-1.5,3.5-3.4,3.5H67"/>
			<path fill="none" stroke="#2A4178" stroke-width="1.5" stroke-miterlimit="10" d="M16.3,66.7v13.7c0,1.9,1.5,3.5,3.4,3.5h13.8"/>
			<path fill="none" stroke="#2A4178" stroke-width="1.5" stroke-miterlimit="10" d="M84.3,33.2V19.5c0-1.9-1.5-3.5-3.4-3.5H67"/>
			<path fill="none" stroke="#2A4178" stroke-width="1.5" stroke-miterlimit="10" d="M16.3,33.2V19.5c0-1.9,1.5-3.5,3.4-3.5h13.8"/>
		</g>
		<g>
			<path fill="#009EE2" d="M88.5,42.9c0,3.2-2.2,7-4.8,7c-2.7,0-4.8-3.8-4.8-7c0-3.2,2.2-4.6,4.8-4.6C86.3,38.3,88.5,39.7,88.5,42.9
				z"/>
			<path fill="#009EE2" d="M87,51.8C86.2,53.1,85,54,83.7,54s-2.5-0.9-3.4-2.3h0c-4.6,0-8.3,3.7-8.3,8.3v0.8h23.2V60
				C95.3,55.5,91.6,51.8,87,51.8L87,51.8z"/>
		</g>
		<g>
			<path fill="#009EE2" d="M21.5,42.9c0,3.2-2.2,7-4.8,7s-4.8-3.8-4.8-7c0-3.2,2.2-4.6,4.8-4.6S21.5,39.7,21.5,42.9z"/>
			<path fill="#009EE2" d="M20,51.8C19.2,53.1,18,54,16.7,54c-1.3,0-2.5-0.9-3.4-2.3h0C8.7,51.8,5,55.5,5,60v0.8h23.2V60
				C28.3,55.5,24.6,51.8,20,51.8L20,51.8z"/>
		</g>
		<g>
			<path fill="#009EE2" d="M55.4,73.9c0,3.2-2.2,7-4.8,7c-2.7,0-4.8-3.8-4.8-7s2.2-4.6,4.8-4.6C53.2,69.3,55.4,70.7,55.4,73.9z"/>
			<path fill="#009EE2" d="M53.9,82.8C53,84.1,51.9,85,50.5,85c-1.3,0-2.5-0.9-3.4-2.3h0c-4.6,0-8.3,3.7-8.3,8.3v0.8h23.2V91
				C62.2,86.5,58.5,82.8,53.9,82.8L53.9,82.8z"/>
		</g>
		<g>
			<path fill="#009EE2" d="M55.4,14.9c0,3.2-2.2,7-4.8,7c-2.7,0-4.8-3.8-4.8-7s2.2-4.6,4.8-4.6C53.2,10.3,55.4,11.7,55.4,14.9z"/>
			<path fill="#009EE2" d="M53.9,23.8C53,25.1,51.9,26,50.5,26c-1.3,0-2.5-0.9-3.4-2.3h0c-4.6,0-8.3,3.7-8.3,8.3v0.8h23.2V32
				C62.2,27.5,58.5,23.8,53.9,23.8L53.9,23.8z"/>
		</g>
	</g>
</g>
<g id="Communication" display="none">
	<g display="inline">
		<g>
			<path fill="none" stroke="#2A4178" stroke-width="1.5" stroke-miterlimit="10" d="M21.6,59.4"/>
			<path fill="none" stroke="#2A4178" stroke-width="1.5" stroke-miterlimit="10" d="M61.9,28.9h18.3c1.8,0,3.3,1.5,3.3,3.3v22.8"/>
			<path fill="none" stroke="#2A4178" stroke-width="1.5" stroke-miterlimit="10" d="M16.6,55.1V33.3c0-1.8,1.5-3.3,3.3-3.3h18.3"/>
			<line fill="none" stroke="#2A4178" stroke-width="1.5" stroke-miterlimit="10" x1="50.1" y1="55.9" x2="50.1" y2="38.9"/>
		</g>
		<g>
			<path fill="#009EE2" d="M88.2,69.8c0,3.2-2.2,7-4.8,7s-4.8-3.8-4.8-7c0-3.2,2.2-4.6,4.8-4.6S88.2,66.6,88.2,69.8z"/>
			<path fill="#009EE2" d="M86.7,78.6c-0.9,1.3-2.1,2.3-3.4,2.3c-1.3,0-2.5-0.9-3.4-2.3h0c-4.6,0-8.3,3.7-8.3,8.3v0.8H95v-0.8
				C95,82.3,91.3,78.6,86.7,78.6L86.7,78.6z"/>
		</g>
		<g>
			<path fill="#009EE2" d="M54.8,69.8c0,3.2-2.2,7-4.8,7c-2.7,0-4.8-3.8-4.8-7c0-3.2,2.2-4.6,4.8-4.6C52.6,65.2,54.8,66.6,54.8,69.8
				z"/>
			<path fill="#009EE2" d="M53.3,78.6c-0.9,1.3-2.1,2.3-3.4,2.3s-2.5-0.9-3.4-2.3h0c-4.6,0-8.3,3.7-8.3,8.3v0.8h23.2v-0.8
				C61.6,82.3,57.9,78.6,53.3,78.6L53.3,78.6z"/>
		</g>
		<g>
			<path fill="#009EE2" d="M21.8,69.8c0,3.2-2.2,7-4.8,7s-4.8-3.8-4.8-7c0-3.2,2.2-4.6,4.8-4.6S21.8,66.6,21.8,69.8z"/>
			<path fill="#009EE2" d="M20.3,78.6c-0.9,1.3-2.1,2.3-3.4,2.3c-1.3,0-2.5-0.9-3.4-2.3h0c-4.6,0-8.3,3.7-8.3,8.3v0.8h23.2v-0.8
				C28.6,82.3,24.9,78.6,20.3,78.6L20.3,78.6z"/>
		</g>
	</g>
	<circle display="inline" fill="none" stroke="#2A4178" stroke-width="1.5" stroke-miterlimit="10" cx="50" cy="25.9" r="12.8"/>
	<polyline display="inline" fill="none" stroke="#2A4178" stroke-width="1.5" stroke-miterlimit="10" points="57.2,20.4 49.1,30.6 
		45,27.3 	"/>
</g>
<g id="What_we_offer" display="none">
	
		<line display="inline" fill="none" stroke="#2A4178" stroke-width="1.5" stroke-miterlimit="10" x1="70.2" y1="34.1" x2="70.2" y2="66.4"/>
	
		<line display="inline" fill="none" stroke="#2A4178" stroke-width="1.5" stroke-miterlimit="10" x1="36.6" y1="47" x2="36.6" y2="34.1"/>
	<path display="inline" fill="#009EE2" d="M50.6,26.2c1.5-1.6,0.4-4.5-2-6.8s-5.7-2.9-7.2-1.3c-1.5,1.6-0.3,5.9,2.6,7.8"/>
	<path display="inline" fill="#009EE2" d="M56.4,26.2c-1.5-1.6-0.4-4.5,2-6.8s5.7-2.9,7.2-1.3c1.5,1.6,0.3,5.9-2.6,7.8"/>
	<polyline display="inline" fill="none" stroke="#2A4178" stroke-width="1.5" stroke-miterlimit="10" points="55.7,25.8 73.3,25.8 
		73.3,34.3 55.6,34.3 	"/>
	<polyline display="inline" fill="none" stroke="#2A4178" stroke-width="1.5" stroke-miterlimit="10" points="51.2,34.3 33.3,34.3 
		33.3,25.8 51.4,25.8 	"/>
	<g display="inline">
		<g>
			<g>
				<polygon fill="#009EE2" points="56.1,57.2 51.1,54.5 51.1,25.2 56.1,25.2 				"/>
				<path fill="none" stroke="#2A4178" stroke-width="1.5" stroke-miterlimit="10" d="M45.6,62.4c0,0,7.2,5.5,12.8,5.8
					c5.6,0.4,7,0.2,7.9-3.4c0.8-3.6-7.6-6-12.6-9.1s-8.6-7.7-16-8.5S25,49.1,25,49.1l-4.4,2.2"/>
				<path fill="none" stroke="#2A4178" stroke-width="1.5" stroke-miterlimit="10" d="M20.7,73.9c0,0,13-3.4,14.6-2
					c1.6,1.3,11.8,10.3,14.5,10.9c2.7,0.6,31.9-10.3,33.8-11.1c3.1-1.2,5.3-6.3,1-8.3s-20,4.6-20,4.6"/>
				<path fill="none" stroke="#2A4178" stroke-width="1.5" stroke-miterlimit="10" d="M51.2,34.3"/>
			</g>
			<polyline fill="none" stroke="#2A4178" stroke-width="1.5" stroke-miterlimit="10" points="20.7,66.1 20.7,75.5 12.2,75.5 
				12.2,50.3 20.7,50.3 20.7,66.4 			"/>
		</g>
	</g>
</g>
<g id="Strong_advantages" display="none">
	<g display="inline">
		<g>
			<g>
				<circle fill="none" stroke="#2A4178" stroke-width="1.5" stroke-miterlimit="10" cx="9.2" cy="45" r="4.2"/>
			</g>
			<g>
				<circle fill="none" stroke="#2A4178" stroke-width="1.5" stroke-miterlimit="10" cx="91.2" cy="45" r="4.2"/>
			</g>
			<g>
				<circle fill="none" stroke="#2A4178" stroke-width="1.5" stroke-miterlimit="10" cx="50.3" cy="20.3" r="6.4"/>
			</g>
			<line fill="none" stroke="#2A4178" stroke-width="1.5" stroke-miterlimit="10" x1="77.6" y1="78.1" x2="22.4" y2="78.1"/>
			<polygon fill="none" stroke="#2A4178" stroke-width="1.5" stroke-miterlimit="10" points="66.7,62.2 65.8,62.2 50.3,35.3 
				35.2,61.5 16.7,53.2 22.7,78.1 24.7,86.2 75.7,86.2 77.5,78.2 83.2,52.5 			"/>
			<polygon fill="#009EE2" stroke="#009EE2" stroke-width="1.5" stroke-miterlimit="10" points="22.7,78.1 16.7,53.2 35.2,61.5 
				50.3,35.3 65.8,62.2 66.7,62.2 83.2,52.5 77.5,78.2 			"/>
		</g>
	</g>
</g>
<g id="PIM" display="none">
	<g display="inline">
		<polyline fill="#009EE2" points="45.1,21.1 45.1,46.1 37.1,37.1 29.1,46.1 29.1,21.1 		"/>
		<path fill="none" stroke="#2A4178" stroke-width="1.5" stroke-miterlimit="10" d="M71.1,76.1V85c0,1.9-1.5,3.4-3.4,3.4h-53
			c-1.9,0-3.4-1.5-3.4-3.4V23.8c0-1.9,1.5-3.4,3.4-3.4h30.5"/>
		<path fill="none" stroke="#2A4178" stroke-width="1.5" stroke-miterlimit="10" d="M84.3,63H57.2c-1.9,0-3.4-1.5-3.4-3.4V15.9
			c0-1.9,1.5-3.4,3.4-3.4h27.1c1.9,0,3.4,1.5,3.4,3.4v43.6C87.7,61.4,86.2,63,84.3,63z"/>
		<g>
			<line fill="none" stroke="#2A4178" stroke-width="1.5" stroke-miterlimit="10" x1="62" y1="21.4" x2="79" y2="21.4"/>
			<line fill="none" stroke="#2A4178" stroke-width="1.5" stroke-miterlimit="10" x1="62" y1="54.4" x2="79" y2="54.4"/>
			<line fill="none" stroke="#2A4178" stroke-width="1.5" stroke-miterlimit="10" x1="62" y1="37.4" x2="79" y2="37.4"/>
		</g>
	</g>
</g>
<g id="Product_configurator" display="none">
	<g display="inline">
		<g>
			<path fill="none" stroke="#2A4178" stroke-width="1.5" stroke-miterlimit="10" d="M52.9,84.1H14.7c-1.9,0-3.4-1.5-3.4-3.4V19.4
				c0-1.9,1.5-3.4,3.4-3.4h53.4c1.9,0,3.4,1.5,3.4,3.4v24.2"/>
			<line fill="none" stroke="#2A4178" stroke-width="1.5" stroke-miterlimit="10" x1="11.4" y1="34.2" x2="71.1" y2="34.2"/>
			<path fill="#009EE2" d="M77.5,56.8"/>
			<path fill="#009EE2" d="M59.3,56.8"/>
			<line fill="none" stroke="#2A4178" stroke-width="1.5" stroke-miterlimit="10" x1="11.5" y1="59.2" x2="53.3" y2="59.2"/>
			<line fill="none" stroke="#2A4178" stroke-width="1.5" stroke-miterlimit="10" x1="21" y1="25" x2="38" y2="25"/>
			<line fill="none" stroke="#2A4178" stroke-width="1.5" stroke-miterlimit="10" x1="21" y1="46.9" x2="38" y2="46.9"/>
			<line fill="none" stroke="#2A4178" stroke-width="1.5" stroke-miterlimit="10" x1="21" y1="71.4" x2="38" y2="71.4"/>
		</g>
		<path fill="#009EE2" d="M71.4,83.7c-0.4,0-0.7,0-1.1,0c-0.5,0-0.9-0.2-1.1-0.6c-0.6-1-1.1-1.9-1.7-2.9c-0.1-0.1-0.2-0.3-0.4-0.4
			c-0.7-0.3-1.4-0.6-2.1-0.9c-0.1,0-0.3-0.1-0.4,0c-1.1,0.3-2.2,0.6-3.3,0.9c-0.5,0.1-0.9,0-1.2-0.3c-0.6-0.6-1.1-1.1-1.7-1.7
			c-0.3-0.3-0.4-0.7-0.2-1.1c0.3-1.1,0.6-2.2,0.9-3.3c0-0.1,0-0.3,0-0.5c-0.3-0.7-0.6-1.4-0.9-2.1c-0.1-0.1-0.2-0.2-0.3-0.3
			c-1-0.6-2-1.1-2.9-1.7c-0.4-0.3-0.7-0.6-0.7-1.2c0-0.7,0-1.4,0-2.1c0-0.5,0.2-0.9,0.7-1.2c1-0.6,2-1.1,3-1.7
			c0.1-0.1,0.2-0.2,0.3-0.3c0.3-0.7,0.6-1.4,0.9-2.2c0-0.1,0-0.3,0-0.4c-0.3-1.1-0.6-2.2-0.9-3.3c-0.1-0.5,0-0.9,0.3-1.2
			c0.5-0.5,1.1-1.1,1.6-1.6c0.3-0.3,0.8-0.4,1.2-0.3c1.1,0.3,2.2,0.6,3.3,0.9c0.1,0,0.3,0,0.4,0c0.7-0.3,1.4-0.6,2.1-0.9
			c0.1-0.1,0.2-0.2,0.3-0.3c0.6-1,1.1-2,1.7-3c0.2-0.4,0.6-0.6,1.1-0.6c0.7,0,1.4,0,2.1,0c0.5,0,0.9,0.2,1.2,0.7c0.6,1,1.1,2,1.7,3
			c0.1,0.1,0.2,0.2,0.3,0.2c0.7,0.3,1.4,0.6,2.2,0.9c0.1,0,0.3,0,0.4,0c1.1-0.3,2.2-0.6,3.3-0.9c0.5-0.1,0.9,0,1.3,0.3
			c0.5,0.5,1,1,1.5,1.5c0.4,0.4,0.5,0.8,0.3,1.3c-0.3,1.1-0.6,2.2-0.9,3.3c0,0.1,0,0.3,0,0.4c0.3,0.7,0.6,1.4,0.9,2.1
			c0.1,0.1,0.2,0.2,0.3,0.3c1,0.6,2,1.1,3,1.7c0.4,0.2,0.6,0.6,0.6,1c0,0.8,0,1.5,0,2.3c0,0.5-0.2,0.8-0.6,1.1
			c-1,0.6-1.9,1.1-2.9,1.7c-0.1,0.1-0.3,0.2-0.4,0.4c-0.3,0.7-0.6,1.4-0.8,2c-0.1,0.1-0.1,0.3,0,0.5c0.3,1.1,0.6,2.2,0.9,3.2
			c0.1,0.5,0,1-0.4,1.3c-0.5,0.5-1,1-1.5,1.5c-0.4,0.4-0.8,0.5-1.3,0.3c-1.1-0.3-2.2-0.6-3.2-0.9c-0.2,0-0.4,0-0.5,0
			c-0.7,0.3-1.4,0.6-2.1,0.9c-0.1,0.1-0.2,0.2-0.3,0.3c-0.6,1-1.1,2-1.7,3c-0.2,0.4-0.6,0.7-1.1,0.6C72.1,83.7,71.7,83.7,71.4,83.7z
			 M71.3,75.2c4.6-0.1,8.5-3.6,8.5-8.5c0-4.8-3.8-8.5-8.5-8.5c-4.7-0.1-8.5,3.8-8.5,8.5C62.8,71.5,66.7,75.1,71.3,75.2z"/>
	</g>
</g>
<g id="E-commerce__x2F__Hybris__x2F___OwnSolution" display="none">
	<g display="inline">
		<g>
			<g>
				<g>
					<path fill="none" stroke="#2A4178" stroke-width="1.5" stroke-miterlimit="10" d="M88.7,84.1H11c-2,0-3.6-1.6-3.6-3.6V19.7
						c0-2,1.6-3.6,3.6-3.6h77.8c2,0,3.6,1.6,3.6,3.6v60.7C92.4,82.4,90.7,84.1,88.7,84.1z"/>
					<line fill="none" stroke="#2A4178" stroke-width="1.5" stroke-miterlimit="10" x1="7.5" y1="33" x2="92.1" y2="33"/>
				</g>
			</g>
			<g>
				<polyline fill="none" stroke="#009EE2" stroke-width="1.5" stroke-miterlimit="10" points="24.7,38.2 32.7,38.2 37.6,61.7 
					37.7,62.2 62.7,62.2 67.2,45.7 34.2,45.7 37.7,62.2 62.7,62.2 66.7,46.2 				"/>
				<g>
					<circle fill="#009EE2" stroke="#009EE2" stroke-miterlimit="10" cx="43.1" cy="73.1" r="2.1"/>
				</g>
				<g>
					<circle fill="#009EE2" stroke="#009EE2" stroke-miterlimit="10" cx="56.1" cy="73.1" r="2.1"/>
				</g>
				<polyline fill="none" stroke="#009EE2" stroke-width="1.5" stroke-miterlimit="10" points="37.7,62.2 37.7,67.2 62.7,67.2 				
					"/>
			</g>
			<g>
				<g>
					<circle fill="#2A4178" cx="17.7" cy="25.2" r="1.7"/>
				</g>
				<g>
					<circle fill="#2A4178" cx="25.7" cy="25.2" r="1.7"/>
				</g>
				<g>
					<circle fill="#2A4178" cx="33.7" cy="25.2" r="1.7"/>
				</g>
			</g>
		</g>
		<polygon fill="#009EE2" points="62.7,62.2 37.7,62.2 33.7,45.2 67.7,45.2 		"/>
	</g>
</g>
<g id="C4C__x2F__CRM" display="none">
	<g display="inline">
		<path fill="none" stroke="#2A4178" stroke-width="1.5" stroke-miterlimit="10" d="M91.9,61.6c2.5-2.9,4-6.6,4-10.7v0
			c0-9.1-7.4-16.5-16.5-16.5h-1.8c0-0.1,0-0.2,0-0.2c0-9.4-7.6-17-17-17c-6.2,0-11.5,3.3-14.5,8.2c-2.7-3.4-6.8-5.7-11.5-5.7
			c-8,0-14.5,6.5-14.5,14.5c0,0.1,0,0.2,0,0.3C11.4,34.9,4.5,42,4.5,50.8v0c0,3.7,1.2,7.1,3.3,9.9"/>
		<line fill="none" stroke="#2A4178" stroke-width="1.5" stroke-miterlimit="10" x1="61.3" y1="67.3" x2="72.3" y2="67.3"/>
		<line fill="none" stroke="#2A4178" stroke-width="1.5" stroke-miterlimit="10" x1="28.1" y1="67.3" x2="39.1" y2="67.3"/>
		<g>
			<path fill="#009EE2" d="M21.3,67.6c0,2.9-1.9,6.3-4.3,6.3s-4.3-3.4-4.3-6.3c0-2.9,1.9-4.2,4.3-4.2S21.3,64.7,21.3,67.6z"/>
			<path fill="#009EE2" d="M20,75.6c-0.8,1.2-1.9,2-3,2c-1.2,0-2.3-0.8-3-2h0c-4.1,0-7.5,3.3-7.5,7.5v0.7h21v-0.7
				C27.5,79,24.1,75.6,20,75.6L20,75.6z"/>
		</g>
		<g>
			<path fill="#009EE2" d="M87.7,67.6c0,2.9-1.9,6.3-4.3,6.3S79,70.5,79,67.6c0-2.9,1.9-4.2,4.3-4.2S87.7,64.7,87.7,67.6z"/>
			<path fill="#009EE2" d="M86.4,75.6c-0.8,1.2-1.9,2-3,2c-1.2,0-2.3-0.8-3-2h0c-4.1,0-7.5,3.3-7.5,7.5v0.7h21v-0.7
				C93.9,79,90.5,75.6,86.4,75.6L86.4,75.6z"/>
		</g>
		<g>
			<path fill="#009EE2" d="M57.1,58c0,4.6-3.1,10.1-6.9,10.1s-6.9-5.5-6.9-10.1s3.1-6.6,6.9-6.6S57.1,53.3,57.1,58z"/>
			<path fill="#009EE2" d="M55,70.7c-1.2,1.9-3,3.2-4.8,3.2s-3.6-1.3-4.8-3.2h0c-6.6,0-11.9,5.3-11.9,11.9v1.1h33.5v-1.1
				C66.9,76,61.6,70.7,55,70.7L55,70.7z"/>
		</g>
	</g>
</g>
<g id="Pharmacy" display="none">
	<g display="inline">
		<path fill="none" stroke="#2A4178" stroke-width="1.5" stroke-miterlimit="10" d="M70,82.8H30.4c-2.6,0-4.7-2.1-4.7-4.7v-41
			c0-2.6,2.1-4.7,4.7-4.7H70c2.6,0,4.7,2.1,4.7,4.7v41C74.7,80.7,72.6,82.8,70,82.8z"/>
		<rect x="37.4" y="16.6" fill="#009EE2" width="25.5" height="8.5"/>
		<polygon fill="#009EE2" points="62.9,53.6 54.4,53.6 54.4,45.1 45.9,45.1 45.9,53.6 37.4,53.6 37.4,62.1 45.9,62.1 45.9,70.6 
			54.4,70.6 54.4,62.1 62.9,62.1 		"/>
	</g>
</g>
<g id="Oil_x26_Gas" display="none">
	<g display="inline">
		<g>
			<path fill="none" stroke="#2A4178" stroke-width="1.5" stroke-miterlimit="10" d="M74,41.3v36c0,1.9-1.5,3.4-3.4,3.4H26.4
				c-1.9,0-3.4-1.5-3.4-3.4V24.9c0-1.9,1.5-3.4,3.4-3.4h28.9c0.9,0,1.8,0.4,2.4,1l15.4,16.4C73.7,39.5,74,40.4,74,41.3z"/>
			<path fill="none" stroke="#2A4178" stroke-width="1.5" stroke-miterlimit="10" d="M59.7,24.6l3.7-3.6c1.3-1.3,3.4-1.3,4.7,0
				l7.3,7.4c1.3,1.3,1.3,3.4,0,4.7l-3.7,3.6"/>
			<rect x="28.7" y="26.6" fill="none" stroke="#2A4178" stroke-width="1.5" stroke-miterlimit="10" width="17" height="4.2"/>
			<rect x="39.5" y="42.8" fill="#009EE2" width="17" height="25"/>
			<path fill="none" stroke="#2A4178" stroke-width="1.5" stroke-miterlimit="10" d="M65.2,79.9"/>
			<line fill="none" stroke="#009EE2" stroke-width="1.5" stroke-miterlimit="10" x1="33.1" y1="34.5" x2="36.6" y2="39.6"/>
			<line fill="none" stroke="#009EE2" stroke-width="1.5" stroke-miterlimit="10" x1="59.1" y1="71.5" x2="62.6" y2="76.6"/>
			<line fill="none" stroke="#009EE2" stroke-width="1.5" stroke-miterlimit="10" x1="62.6" y1="34.5" x2="59.1" y2="39.6"/>
			<line fill="none" stroke="#009EE2" stroke-width="1.5" stroke-miterlimit="10" x1="37.6" y1="71.5" x2="34.1" y2="76.6"/>
		</g>
	</g>
</g>
<g id="Electronics__x26__IoT" display="none">
	<g display="inline">
		<g>
			<g>
				<path fill="#2A4178" d="M50.2,16.5c6.3,0,11.9,3.8,14.3,9.6l0.4,0.9h1h0.8c8.5,0,15.5,7,15.5,15.5S75.2,58,66.7,58H30.2
					c-6.6,0-12-5.4-12-12s5.4-12,12-12h3h1.5l0-1.5c0-0.1,0-0.2,0-0.3c0-0.1,0-0.1,0-0.2C34.7,23.5,41.6,16.5,50.2,16.5 M50.2,15
					L50.2,15c-9.4,0-17,7.6-17,17v0c0,0.2,0,0.3,0,0.5h-3c-7.5,0-13.5,6-13.5,13.5c0,7.5,6,13.5,13.5,13.5h36.5c9.4,0,17-7.6,17-17
					v0c0-9.4-7.6-17-17-17h-0.8C63.3,19.3,57.2,15,50.2,15L50.2,15z"/>
			</g>
			<line fill="none" stroke="#2A4178" stroke-width="1.5" stroke-miterlimit="10" x1="50.2" y1="59" x2="50.2" y2="77"/>
			<polyline fill="none" stroke="#2A4178" stroke-width="1.5" stroke-miterlimit="10" points="33.7,59 33.7,77 25.5,77 			"/>
			<polyline fill="none" stroke="#2A4178" stroke-width="1.5" stroke-miterlimit="10" points="66.5,59 66.5,77 74.7,77 			"/>
			<g>
				<circle fill="#009EE2" cx="50.2" cy="80.9" r="4.2"/>
			</g>
			<g>
				<circle fill="#009EE2" cx="21.9" cy="76.9" r="4.2"/>
			</g>
			<g>
				<circle fill="#009EE2" cx="78.4" cy="76.9" r="4.2"/>
			</g>
		</g>
		<g>
			<g>
				<path fill="none" stroke="#009EE2" stroke-width="1.5" stroke-miterlimit="10" d="M59.6,37.9c-2.5-1.5-5.5-2.4-8.7-2.5
					c-3.7-0.1-7.2,1-10.1,2.9"/>
				<path fill="none" stroke="#009EE2" stroke-width="1.5" stroke-miterlimit="10" d="M59.6,37.9"/>
				<path fill="none" stroke="#009EE2" stroke-width="1.5" stroke-miterlimit="10" d="M57,41.7c-1.8-1.1-4-1.7-6.2-1.7
					c-2.7-0.1-5.2,0.7-7.3,2"/>
				<path fill="none" stroke="#009EE2" stroke-width="1.5" stroke-miterlimit="10" d="M59.6,37.9"/>
			</g>
			<g>
				<circle fill="#009EE2" cx="50.8" cy="45.7" r="1.7"/>
			</g>
		</g>
	</g>
</g>
<g id="Retail" display="none">
	<g display="inline">
		<g>
			<g>
				<path fill="none" stroke="#2A4178" stroke-width="1.5" stroke-miterlimit="10" d="M86.5,48.2l-8.7-20.9
					c-0.3-0.7-0.9-1.3-1.6-1.7l-20-10.2c-1.2-0.6-2.7-0.4-3.8,0.5L14.7,50.7c-1.3,1.2-1.4,3.3-0.2,4.7l28.7,31.1
					c1.2,1.3,3.3,1.4,4.7,0.2l37.8-34.8C86.7,50.9,87,49.5,86.5,48.2z M68,40.6c-1.7,1.6-4.4,1.5-6-0.2s-1.5-4.4,0.2-6
					c1.7-1.6,4.4-1.5,6,0.2S69.7,39,68,40.6z"/>
				<line fill="none" stroke="#009EE2" stroke-width="1.5" stroke-miterlimit="10" x1="41" y1="42.8" x2="57.9" y2="61.1"/>
				<line fill="none" stroke="#009EE2" stroke-width="1.5" stroke-miterlimit="10" x1="35.1" y1="48.2" x2="52" y2="66.6"/>
			</g>
			<path fill="none" stroke="#2A4178" stroke-width="1.5" stroke-miterlimit="10" d="M65,37.5v-21c0-2.2,1.8-4,4-4h0
				c2.2,0,4,1.8,4,4v1.7"/>
		</g>
	</g>
</g>
<g id="Food__x26__Beverages" display="none">
	<polygon display="inline" fill="#009EE2" points="23.5,51.5 37.4,51.7 33.1,60.5 33.1,64.5 33,68.6 23.6,68 	"/>
	<g display="inline">
		<g>
			<g>
				<g>
					<line fill="none" stroke="#009EE2" stroke-width="1.5" stroke-miterlimit="10" x1="38.8" y1="51.5" x2="24.4" y2="51.5"/>
					<line fill="none" stroke="#009EE2" stroke-width="1.5" stroke-miterlimit="10" x1="33.2" y1="67.8" x2="24.4" y2="67.8"/>
					<path fill="none" stroke="#2A4178" stroke-width="1.5" stroke-miterlimit="10" d="M32.3,19.6v16l-7.4,8.2
						c-0.4,0.5-0.7,1.2-0.7,1.9v35.8c0,1.4,1.1,2.5,2.5,2.5h18.5"/>
					<path fill="none" stroke="#2A4178" stroke-width="1.5" stroke-miterlimit="10" d="M47.8,45.6c0-0.7-0.2-1.3-0.7-1.9l-7.3-8.1
						V19.6"/>
					<line fill="none" stroke="#2A4178" stroke-width="1.5" stroke-miterlimit="10" x1="32.4" y1="35.7" x2="39.8" y2="35.7"/>
				</g>
			</g>
			<path fill="none" stroke="#2A4178" stroke-width="1.5" stroke-miterlimit="10" d="M39.3,20h-6.5c-1.1,0-2-0.9-2-2v0
				c0-1.1,0.9-2,2-2h6.5c1.1,0,2,0.9,2,2v0C41.3,19.1,40.4,20,39.3,20z"/>
			<line fill="none" stroke="#2A4178" stroke-width="1.5" stroke-miterlimit="10" x1="31" y1="17.9" x2="41.5" y2="17.9"/>
		</g>
		<g>
			<g>
				<line fill="none" stroke="#2A4178" stroke-width="1.5" stroke-miterlimit="10" x1="74" y1="65.5" x2="73.3" y2="65.5"/>
				<polyline fill="none" stroke="#2A4178" stroke-width="1.5" stroke-miterlimit="10" points="69.7,65.5 53,65.5 53,48.6 				"/>
				<line fill="none" stroke="#2A4178" stroke-width="1.5" stroke-miterlimit="10" x1="69.7" y1="65.5" x2="73.3" y2="65.5"/>
				<path fill="none" stroke="#2A4178" stroke-width="1.5" stroke-miterlimit="10" d="M53,48.6v-3.5c-11.2,0-20.2,9.1-20.2,20.2
					S41.9,85.6,53,85.6c11.1,0,20.1-8.9,20.2-20"/>
				<path fill="none" stroke="#2A4178" stroke-width="1.5" stroke-miterlimit="10" d="M69.7,65.5C69.6,74.7,62.2,82,53,82
					c-9.2,0-16.7-7.5-16.7-16.7S43.8,48.6,53,48.6"/>
			</g>
			<g>
				<line fill="none" stroke="#2A4178" stroke-width="1.5" stroke-miterlimit="10" x1="77" y1="61.5" x2="77.8" y2="61.5"/>
				<line fill="none" stroke="#2A4178" stroke-width="1.5" stroke-miterlimit="10" x1="56.8" y1="41.7" x2="56.8" y2="41.5"/>
				<polyline fill="none" stroke="#2A4178" stroke-width="1.5" stroke-miterlimit="10" points="56.8,41.7 56.8,61.5 77.1,61.5 				
					"/>
				<path fill="none" stroke="#2A4178" stroke-width="1.5" stroke-miterlimit="10" d="M77.1,61.5c-0.2-11-9.2-19.8-20.2-19.8
					c0,0,0,0,0,0v0"/>
			</g>
		</g>
		<g>
			<circle fill="#009EE2" cx="60.7" cy="72.7" r="2.1"/>
		</g>
		<g>
			<circle fill="#009EE2" cx="46.2" cy="72.7" r="2.1"/>
		</g>
		<g>
			<circle fill="#009EE2" cx="63.7" cy="55.2" r="2.1"/>
		</g>
		<g>
			<circle fill="#009EE2" cx="46.2" cy="57.2" r="2.1"/>
		</g>
		<path fill="none" stroke="#2A4178" stroke-width="1.5" stroke-miterlimit="10" d="M56.5,44.9c9.2,0,16.7,7.5,16.7,16.7"/>
	</g>
</g>
<g id="E-commerce" display="none">
	<g display="inline">
		<g>
			<g>
				<g>
					<g>
						<g>
							<path fill="#2A4178" d="M88.9,17.6c1.2,0,2.1,1,2.1,2.1v60.7c0,1.2-1,2.1-2.1,2.1H11.1c-1.2,0-2.1-1-2.1-2.1V19.7
								c0-1.2,1-2.1,2.1-2.1H88.9 M88.9,16.1H11.1c-2,0-3.6,1.6-3.6,3.6v60.7c0,2,1.6,3.6,3.6,3.6h77.8c2,0,3.6-1.6,3.6-3.6V19.7
								C92.5,17.7,90.9,16.1,88.9,16.1L88.9,16.1z"/>
						</g>
						<line fill="none" stroke="#2A4178" stroke-width="1.5" stroke-miterlimit="10" x1="7.7" y1="33" x2="92.3" y2="33"/>
					</g>
				</g>
			</g>
			<g>
				<g>
					<path fill="none" stroke="#009EE2" stroke-width="1.5" stroke-miterlimit="10" d="M36.8,67.1H20.6c-0.6,0-1.2-0.4-1.3-1.1
						l-2.8-15.5c-0.1-0.8,0.5-1.5,1.3-1.5h21.7c0.8,0,1.4,0.7,1.3,1.5L38,66C37.9,66.6,37.4,67.1,36.8,67.1z"/>
					<line fill="none" stroke="#009EE2" stroke-width="1.5" stroke-miterlimit="10" x1="40.2" y1="53.3" x2="17.2" y2="53.3"/>
					<polygon fill="#009EE2" points="38.3,66.8 19.3,66.8 17.3,52.8 40.3,52.8 					"/>
					<g>
						<line fill="none" stroke="#FFFFFF" stroke-miterlimit="10" x1="25.3" y1="56.8" x2="25.3" y2="62.6"/>
						<line fill="none" stroke="#FFFFFF" stroke-miterlimit="10" x1="31.4" y1="56.8" x2="31.4" y2="62.6"/>
					</g>
					<g>
						<line fill="none" stroke="#009EE2" stroke-width="1.5" stroke-miterlimit="10" x1="22.9" y1="49.4" x2="26.2" y2="43.3"/>
						<line fill="none" stroke="#009EE2" stroke-width="1.5" stroke-miterlimit="10" x1="34.4" y1="49.4" x2="31.2" y2="43.3"/>
					</g>
				</g>
			</g>
			<line fill="none" stroke="#2A4178" stroke-width="1.5" stroke-miterlimit="10" x1="50.3" y1="49.8" x2="83.3" y2="49.8"/>
			<line fill="none" stroke="#2A4178" stroke-width="1.5" stroke-miterlimit="10" x1="50.3" y1="57.8" x2="83.3" y2="57.8"/>
			<line fill="none" stroke="#2A4178" stroke-width="1.5" stroke-miterlimit="10" x1="50.3" y1="66.8" x2="83.3" y2="66.8"/>
		</g>
		<g>
			<g>
				<circle fill="#2A4178" cx="17.7" cy="24.9" r="1.7"/>
			</g>
			<g>
				<circle fill="#2A4178" cx="25.7" cy="24.9" r="1.7"/>
			</g>
			<g>
				<circle fill="#2A4178" cx="33.7" cy="24.9" r="1.7"/>
			</g>
		</g>
	</g>
</g>
<g id="Chemicals" display="none">
	<g display="inline">
		<path fill="none" stroke="#2A4178" stroke-width="1.5" stroke-miterlimit="10" d="M32.7,16.1h8.6v17.3L18.4,79.2
			c-1.1,2.2,0.5,4.9,3,4.9h57.1c2.5,0,4.1-2.6,3-4.9L58.6,33.3V16.1h7.6"/>
		<g>
			<circle fill="#009EE2" cx="38.6" cy="67.6" r="4.2"/>
		</g>
		<g>
			<circle fill="#009EE2" cx="58.6" cy="62.6" r="4.2"/>
		</g>
		<g>
			<circle fill="#009EE2" cx="47.8" cy="47.5" r="2.1"/>
		</g>
	</g>
</g>
<g id="Automotive" display="none">
	
		<line display="inline" fill="none" stroke="#009EE2" stroke-width="1.5" stroke-miterlimit="10" x1="50.2" y1="29.2" x2="50.2" y2="33.9"/>
	
		<line display="inline" fill="none" stroke="#009EE2" stroke-width="1.5" stroke-miterlimit="10" x1="22.8" y1="58.6" x2="27.5" y2="58.6"/>
	
		<line display="inline" fill="none" stroke="#009EE2" stroke-width="1.5" stroke-miterlimit="10" x1="72.8" y1="58.6" x2="77.5" y2="58.6"/>
	
		<line display="inline" fill="none" stroke="#009EE2" stroke-width="1.5" stroke-miterlimit="10" x1="30.4" y1="38.4" x2="33.7" y2="41.7"/>
	
		<line display="inline" fill="none" stroke="#009EE2" stroke-width="1.5" stroke-miterlimit="10" x1="67" y1="41.5" x2="70.3" y2="38.2"/>
	<g display="inline">
		<g>
			<circle fill="#009EE2" cx="50.2" cy="63.4" r="2.5"/>
			<line fill="none" stroke="#009EE2" stroke-width="1.5" stroke-miterlimit="10" x1="50" y1="45.1" x2="50" y2="61.1"/>
		</g>
		<path fill="none" stroke="#2A4178" stroke-width="1.5" stroke-miterlimit="10" d="M50,24.6c-18.8,0-34,15.2-34,34
			c0,6.2,1.7,12,4.6,17l58.8,0c2.9-5,4.6-10.8,4.6-17C84,39.8,68.8,24.6,50,24.6z"/>
		<path fill="none" stroke="#2A4178" stroke-width="1.5" stroke-miterlimit="10" d="M50,29.3c-15.3,0-27.7,12.4-27.7,27.7
			c0,5,1.4,9.8,3.7,13.9l47.9,0c2.4-4.1,3.7-8.8,3.7-13.9C77.7,41.7,65.3,29.3,50,29.3z"/>
	</g>
</g>
<g id="Computers__x26__Accessories" display="none">
	<g display="inline">
		<g>
			<g>
				<path fill="#2A4178" d="M72.1,26c1,0,1.9,0.8,1.9,1.9v44.3c0,1-0.8,1.9-1.9,1.9H27.9c-1,0-1.9-0.8-1.9-1.9V27.9
					c0-1,0.8-1.9,1.9-1.9H72.1 M72.1,24.5H27.9c-1.9,0-3.4,1.5-3.4,3.4v44.3c0,1.9,1.5,3.4,3.4,3.4h44.3c1.9,0,3.4-1.5,3.4-3.4V27.9
					C75.5,26,74,24.5,72.1,24.5L72.1,24.5z"/>
			</g>
			<path fill="#009EE2" d="M63.6,67H36.4c-1.9,0-3.4-1.5-3.4-3.4V36.4c0-1.9,1.5-3.4,3.4-3.4h27.3c1.9,0,3.4,1.5,3.4,3.4v27.3
				C67,65.5,65.5,67,63.6,67z"/>
			<g>
				<line fill="none" stroke="#2A4178" stroke-width="1.5" stroke-miterlimit="10" x1="33.3" y1="8.4" x2="33.3" y2="16.9"/>
				<line fill="none" stroke="#2A4178" stroke-width="1.5" stroke-miterlimit="10" x1="41.6" y1="8.4" x2="41.6" y2="16.9"/>
				<line fill="none" stroke="#2A4178" stroke-width="1.5" stroke-miterlimit="10" x1="49.8" y1="8.4" x2="49.8" y2="16.9"/>
				<line fill="none" stroke="#2A4178" stroke-width="1.5" stroke-miterlimit="10" x1="58.1" y1="8.4" x2="58.1" y2="16.9"/>
				<line fill="none" stroke="#2A4178" stroke-width="1.5" stroke-miterlimit="10" x1="66.3" y1="8.4" x2="66.3" y2="16.9"/>
			</g>
			<g>
				<line fill="none" stroke="#2A4178" stroke-width="1.5" stroke-miterlimit="10" x1="33.3" y1="83.2" x2="33.3" y2="91.7"/>
				<line fill="none" stroke="#2A4178" stroke-width="1.5" stroke-miterlimit="10" x1="41.6" y1="83.2" x2="41.6" y2="91.7"/>
				<line fill="none" stroke="#2A4178" stroke-width="1.5" stroke-miterlimit="10" x1="49.8" y1="83.2" x2="49.8" y2="91.7"/>
				<line fill="none" stroke="#2A4178" stroke-width="1.5" stroke-miterlimit="10" x1="58.1" y1="83.2" x2="58.1" y2="91.7"/>
				<line fill="none" stroke="#2A4178" stroke-width="1.5" stroke-miterlimit="10" x1="66.3" y1="83.2" x2="66.3" y2="91.7"/>
			</g>
			<g>
				<line fill="none" stroke="#2A4178" stroke-width="1.5" stroke-miterlimit="10" x1="8.7" y1="66.7" x2="17.2" y2="66.7"/>
				<line fill="none" stroke="#2A4178" stroke-width="1.5" stroke-miterlimit="10" x1="8.7" y1="58.4" x2="17.2" y2="58.4"/>
				<line fill="none" stroke="#2A4178" stroke-width="1.5" stroke-miterlimit="10" x1="8.7" y1="50.2" x2="17.2" y2="50.2"/>
				<line fill="none" stroke="#2A4178" stroke-width="1.5" stroke-miterlimit="10" x1="8.7" y1="41.9" x2="17.2" y2="41.9"/>
				<line fill="none" stroke="#2A4178" stroke-width="1.5" stroke-miterlimit="10" x1="8.7" y1="33.7" x2="17.2" y2="33.7"/>
			</g>
			<g>
				<line fill="none" stroke="#2A4178" stroke-width="1.5" stroke-miterlimit="10" x1="83.1" y1="66.7" x2="91.6" y2="66.7"/>
				<line fill="none" stroke="#2A4178" stroke-width="1.5" stroke-miterlimit="10" x1="83.1" y1="58.4" x2="91.6" y2="58.4"/>
				<line fill="none" stroke="#2A4178" stroke-width="1.5" stroke-miterlimit="10" x1="83.1" y1="50.2" x2="91.6" y2="50.2"/>
				<line fill="none" stroke="#2A4178" stroke-width="1.5" stroke-miterlimit="10" x1="83.1" y1="41.9" x2="91.6" y2="41.9"/>
				<line fill="none" stroke="#2A4178" stroke-width="1.5" stroke-miterlimit="10" x1="83.1" y1="33.7" x2="91.6" y2="33.7"/>
			</g>
		</g>
	</g>
</g>
<g id="business_management" display="none">
	<g display="inline">
		<g>
			<path fill="none" stroke="#2A4178" stroke-width="1.5" stroke-miterlimit="10" d="M84,66.7v13.7c0,1.9-1.5,3.5-3.4,3.5H66.7"/>
			<path fill="none" stroke="#2A4178" stroke-width="1.5" stroke-miterlimit="10" d="M16,66.7v13.7c0,1.9,1.5,3.5,3.4,3.5h13.8"/>
			<path fill="none" stroke="#2A4178" stroke-width="1.5" stroke-miterlimit="10" d="M84,33.3V19.5c0-1.9-1.5-3.5-3.4-3.5H66.7"/>
			<path fill="none" stroke="#2A4178" stroke-width="1.5" stroke-miterlimit="10" d="M16,33.3V19.5c0-1.9,1.5-3.5,3.4-3.5h13.8"/>
		</g>
		<g>
			<path fill="#009EE2" d="M88.5,41.9c0,3.2-2.2,7-4.8,7c-2.7,0-4.8-3.8-4.8-7c0-3.2,2.2-4.6,4.8-4.6C86.3,37.3,88.5,38.7,88.5,41.9
				z"/>
			<path fill="#009EE2" d="M87,50.8C86.2,52.1,85,53,83.7,53s-2.5-0.9-3.4-2.3h0c-4.6,0-8.3,3.7-8.3,8.3v0.8h23.2V59
				C95.3,54.5,91.6,50.8,87,50.8L87,50.8z"/>
		</g>
		<g>
			<path fill="#009EE2" d="M21.5,41.9c0,3.2-2.2,7-4.8,7s-4.8-3.8-4.8-7c0-3.2,2.2-4.6,4.8-4.6S21.5,38.7,21.5,41.9z"/>
			<path fill="#009EE2" d="M20,50.8C19.2,52.1,18,53,16.7,53c-1.3,0-2.5-0.9-3.4-2.3h0C8.7,50.8,5,54.5,5,59v0.8h23.2V59
				C28.3,54.5,24.6,50.8,20,50.8L20,50.8z"/>
		</g>
		<g>
			<path fill="#009EE2" d="M55.4,72.9c0,3.2-2.2,7-4.8,7c-2.7,0-4.8-3.8-4.8-7s2.2-4.6,4.8-4.6C53.2,68.3,55.4,69.7,55.4,72.9z"/>
			<path fill="#009EE2" d="M53.9,81.8C53,83.1,51.9,84,50.5,84c-1.3,0-2.5-0.9-3.4-2.3h0c-4.6,0-8.3,3.7-8.3,8.3v0.8h23.2V90
				C62.2,85.5,58.5,81.8,53.9,81.8L53.9,81.8z"/>
		</g>
		<g>
			<path fill="#009EE2" d="M55.4,13.9c0,3.2-2.2,7-4.8,7c-2.7,0-4.8-3.8-4.8-7s2.2-4.6,4.8-4.6C53.2,9.3,55.4,10.7,55.4,13.9z"/>
			<path fill="#009EE2" d="M53.9,22.8C53,24.1,51.9,25,50.5,25c-1.3,0-2.5-0.9-3.4-2.3h0c-4.6,0-8.3,3.7-8.3,8.3v0.8h23.2V31
				C62.2,26.5,58.5,22.8,53.9,22.8L53.9,22.8z"/>
		</g>
	</g>
	<g display="inline">
		<g>
			<path fill="#009EE2" d="M50.5,58.4c-0.2,0-0.4,0-0.6,0c-0.3,0-0.5-0.1-0.6-0.4c-0.3-0.6-0.6-1.1-1-1.7c-0.1-0.1-0.1-0.2-0.2-0.2
				c-0.4-0.2-0.8-0.3-1.2-0.5c-0.1,0-0.2,0-0.2,0c-0.6,0.2-1.3,0.3-1.9,0.5c-0.3,0.1-0.5,0-0.7-0.2c-0.3-0.3-0.6-0.6-0.9-1
				C43,54.9,43,54.7,43,54.5c0.2-0.6,0.3-1.2,0.5-1.9c0-0.1,0-0.2,0-0.3c-0.2-0.4-0.3-0.8-0.5-1.2c0-0.1-0.1-0.1-0.2-0.2
				c-0.6-0.3-1.1-0.6-1.7-1c-0.2-0.1-0.4-0.4-0.4-0.7c0-0.4,0-0.8,0-1.2c0-0.3,0.1-0.5,0.4-0.7c0.6-0.3,1.1-0.6,1.7-1
				c0.1,0,0.1-0.1,0.2-0.2c0.2-0.4,0.3-0.8,0.5-1.2c0-0.1,0-0.1,0-0.2c-0.2-0.6-0.3-1.3-0.5-1.9c-0.1-0.3,0-0.5,0.2-0.7
				c0.3-0.3,0.6-0.6,0.9-0.9c0.2-0.2,0.4-0.2,0.7-0.2c0.6,0.2,1.2,0.4,1.9,0.5c0.1,0,0.2,0,0.2,0c0.4-0.2,0.8-0.3,1.2-0.5
				c0.1,0,0.1-0.1,0.2-0.2c0.3-0.6,0.6-1.1,1-1.7c0.1-0.2,0.4-0.4,0.6-0.4c0.4,0,0.8,0,1.2,0c0.3,0,0.5,0.1,0.7,0.4
				c0.3,0.6,0.6,1.1,1,1.7c0,0.1,0.1,0.1,0.2,0.1c0.4,0.2,0.8,0.3,1.2,0.5c0.1,0,0.2,0,0.2,0c0.6-0.2,1.2-0.3,1.9-0.5
				c0.3-0.1,0.5,0,0.7,0.2c0.3,0.3,0.6,0.6,0.9,0.9c0.2,0.2,0.3,0.4,0.2,0.7c-0.2,0.6-0.4,1.2-0.5,1.9c0,0.1,0,0.2,0,0.2
				c0.2,0.4,0.3,0.8,0.5,1.2c0,0.1,0.1,0.1,0.2,0.2c0.6,0.3,1.1,0.6,1.7,1c0.2,0.1,0.3,0.3,0.3,0.6c0,0.4,0,0.9,0,1.3
				c0,0.3-0.1,0.5-0.4,0.6c-0.6,0.3-1.1,0.6-1.7,1c-0.1,0.1-0.2,0.1-0.2,0.2c-0.2,0.4-0.3,0.8-0.5,1.2c0,0.1,0,0.2,0,0.3
				c0.2,0.6,0.3,1.2,0.5,1.8c0.1,0.3,0,0.5-0.2,0.8c-0.3,0.3-0.6,0.6-0.8,0.8c-0.2,0.2-0.4,0.3-0.7,0.2c-0.6-0.2-1.2-0.3-1.8-0.5
				c-0.1,0-0.2,0-0.3,0c-0.4,0.2-0.8,0.3-1.2,0.5c-0.1,0-0.1,0.1-0.2,0.2c-0.3,0.6-0.6,1.1-1,1.7c-0.1,0.2-0.3,0.4-0.6,0.4
				C51,58.4,50.8,58.4,50.5,58.4z M50.5,53c2.3,0,4.2-1.8,4.2-4.2c0-2.4-1.9-4.2-4.2-4.2c-2.3,0-4.2,1.9-4.2,4.2
				C46.3,51.1,48.2,52.9,50.5,53z"/>
		</g>
	</g>
</g>
<g id="Content_manegment" display="none">
	<g display="inline">
		<path fill="none" stroke="#2A4178" stroke-width="1.5" stroke-miterlimit="10" d="M77.6,84H22.4c-3.5,0-6.4-2.9-6.4-6.4V22.4
			c0-3.5,2.9-6.4,6.4-6.4h55.2c3.5,0,6.4,2.9,6.4,6.4v55.2C84,81.1,81.1,84,77.6,84z"/>
		<g>
			<path fill="#009EE2" d="M58.1,74.8c-0.3,0-0.7,0-1,0c-0.5,0-0.8-0.2-1.1-0.6c-0.4-0.7-0.7-1.3-1.1-2c-0.4-0.7-1-1.3-1.8-1.6
				c-0.1,0-0.1,0-0.2-0.1c-0.6-0.2-1.6-0.3-2.2-0.1c-0.2,0.1-0.4,0.1-0.6,0.2c-1.4,0.4-2.9,0-4-1.1c-0.1-0.1-0.3-0.3-0.4-0.4
				c-0.3-0.3-0.3-0.7-0.2-1.1c0.2-0.7,0.4-1.5,0.6-2.2c0.2-0.6,0.1-1.7-0.1-2.3c0-0.1,0-0.1-0.1-0.2c-0.3-0.6-0.9-1.4-1.5-1.7
				c-0.7-0.4-1.3-0.7-2-1.1c-0.4-0.2-0.6-0.6-0.6-1.1c0-0.7,0-1.3,0-2c0-0.5,0.2-0.9,0.6-1.1c0.7-0.4,1.3-0.7,2-1.1
				c0.7-0.4,1.2-1,1.5-1.7c0-0.1,0.1-0.2,0.1-0.2c0.2-0.6,0.3-1.6,0.1-2.2c-0.1-0.2-0.1-0.4-0.2-0.6c-0.4-1.4,0-3,1.1-4
				c0.1-0.1,0.2-0.2,0.3-0.3c0.3-0.3,0.8-0.4,1.2-0.3c1.1,0.3,2.1,0.6,3.2,0.9c0.1,0,0.3,0,0.4,0c0.7-0.3,1.4-0.5,2-0.8
				c0.1,0,0.2-0.2,0.3-0.3c0.5-0.9,1.1-1.9,1.6-2.8c0.2-0.4,0.6-0.6,1.1-0.6c0.7,0,1.3,0,2,0c0.5,0,0.9,0.3,1.1,0.7
				c0.5,1,1.1,1.9,1.6,2.8c0,0.1,0.2,0.2,0.2,0.2c0.7,0.3,1.4,0.6,2.1,0.8c0.1,0,0.3,0.1,0.4,0c1-0.3,2.1-0.6,3.1-0.9
				c0.4-0.1,0.9,0,1.2,0.3c0.1,0.1,0.2,0.2,0.3,0.3c1,1.1,1.5,2.6,1,4c-0.1,0.2-0.1,0.4-0.2,0.6c-0.2,0.6-0.1,1.6,0.1,2.2
				c0,0.1,0.1,0.2,0.1,0.2c0.3,0.6,0.9,1.4,1.5,1.7c0.2,0.1,0.4,0.2,0.6,0.3c1.3,0.7,2,2.1,2,3.5c0,0.2,0,0.3,0,0.5
				c0,0.5-0.2,0.8-0.6,1c-0.7,0.4-1.3,0.7-2,1.1c-0.7,0.4-1.3,1-1.6,1.8c0,0.1,0,0.1-0.1,0.2c-0.2,0.6-0.3,1.6-0.1,2.3
				c0.1,0.2,0.1,0.4,0.2,0.6c0.4,1.4,0,3-1.1,4c-0.1,0.1-0.2,0.2-0.3,0.3c-0.3,0.4-0.7,0.5-1.2,0.3c-0.7-0.2-1.4-0.4-2.2-0.6
				c-0.7-0.2-1.7-0.1-2.3,0.1c-0.1,0-0.1,0.1-0.2,0.1c-0.7,0.3-1.3,0.8-1.7,1.5c-0.4,0.7-0.8,1.3-1.1,2c-0.2,0.4-0.6,0.6-1.1,0.6
				C58.8,74.8,58.5,74.8,58.1,74.8z M58.1,66.3c4.3-0.1,7.8-3.3,7.9-7.8c0-4.5-3.5-7.8-7.8-7.9c-4.3,0-7.9,3.5-7.9,7.8
				C50.3,62.9,53.8,66.2,58.1,66.3z"/>
		</g>
		<g>
			<path fill="#009EE2" d="M33.7,42.1c-0.2,0-0.4,0-0.6,0c-0.3,0-0.4-0.1-0.6-0.3c-0.3-0.5-0.6-1-0.9-1.5c0-0.1-0.1-0.1-0.2-0.2
				c-0.3-0.2-0.7-0.3-1.1-0.4c-0.1,0-0.1,0-0.2,0c-0.6,0.2-1.1,0.3-1.7,0.5c-0.2,0.1-0.4,0-0.6-0.2c-0.3-0.3-0.6-0.6-0.8-0.9
				c-0.2-0.2-0.2-0.4-0.1-0.6c0.2-0.6,0.3-1.1,0.5-1.7c0-0.1,0-0.2,0-0.2c-0.1-0.4-0.3-0.7-0.4-1.1c0-0.1-0.1-0.1-0.1-0.2
				c-0.5-0.3-1-0.6-1.5-0.9c-0.2-0.1-0.3-0.3-0.3-0.6c0-0.4,0-0.7,0-1.1c0-0.3,0.1-0.5,0.3-0.6c0.5-0.3,1-0.6,1.5-0.9
				c0.1,0,0.1-0.1,0.1-0.2c0.2-0.4,0.3-0.7,0.5-1.1c0-0.1,0-0.1,0-0.2c-0.2-0.6-0.3-1.1-0.5-1.7c-0.1-0.2,0-0.5,0.2-0.6
				c0.3-0.3,0.5-0.5,0.8-0.8c0.2-0.2,0.4-0.2,0.6-0.2c0.6,0.2,1.1,0.3,1.7,0.5c0.1,0,0.1,0,0.2,0c0.4-0.1,0.7-0.3,1.1-0.5
				c0.1,0,0.1-0.1,0.2-0.1c0.3-0.5,0.6-1,0.9-1.5c0.1-0.2,0.3-0.3,0.6-0.3c0.4,0,0.7,0,1.1,0c0.3,0,0.5,0.1,0.6,0.3
				c0.3,0.5,0.6,1,0.9,1.5c0,0,0.1,0.1,0.1,0.1c0.4,0.2,0.7,0.3,1.1,0.5c0.1,0,0.1,0,0.2,0c0.6-0.2,1.1-0.3,1.7-0.5
				c0.3-0.1,0.5,0,0.7,0.2c0.3,0.3,0.5,0.5,0.8,0.8c0.2,0.2,0.2,0.4,0.2,0.6c-0.2,0.6-0.3,1.1-0.5,1.7c0,0.1,0,0.1,0,0.2
				c0.1,0.4,0.3,0.7,0.5,1.1c0,0.1,0.1,0.1,0.2,0.2c0.5,0.3,1,0.6,1.5,0.9c0.2,0.1,0.3,0.3,0.3,0.5c0,0.4,0,0.8,0,1.2
				c0,0.3-0.1,0.4-0.3,0.5c-0.5,0.3-1,0.6-1.5,0.9c-0.1,0-0.1,0.1-0.2,0.2c-0.2,0.3-0.3,0.7-0.4,1c0,0.1,0,0.2,0,0.2
				c0.1,0.6,0.3,1.1,0.5,1.7c0.1,0.3,0,0.5-0.2,0.7c-0.3,0.2-0.5,0.5-0.8,0.8c-0.2,0.2-0.4,0.2-0.6,0.2c-0.6-0.2-1.1-0.3-1.7-0.5
				c-0.1,0-0.2,0-0.3,0c-0.4,0.1-0.7,0.3-1.1,0.4c-0.1,0-0.1,0.1-0.2,0.1c-0.3,0.5-0.6,1-0.9,1.5c-0.1,0.2-0.3,0.3-0.6,0.3
				C34,42.1,33.8,42.1,33.7,42.1z M33.7,37.6c2.3,0,4.2-1.8,4.2-4.2c0-2.4-1.9-4.2-4.2-4.2c-2.3,0-4.2,1.9-4.2,4.2
				C29.5,35.8,31.4,37.6,33.7,37.6z"/>
		</g>
	</g>
</g>
<g id="omni-channel_commerce" display="none">
	<g display="inline">
		<g>
			<polygon fill="#009EE2" points="56.6,56.8 43.6,56.8 42.6,46.8 58.6,46.8 			"/>
			<g>
				<path fill="#2A4178" d="M50.2,34.8c8.4,0,15.3,6.9,15.3,15.3s-6.9,15.3-15.3,15.3s-15.3-6.9-15.3-15.3S41.8,34.8,50.2,34.8
					 M50.2,33.3c-9.3,0-16.8,7.5-16.8,16.8s7.5,16.8,16.8,16.8S67,59.4,67,50.1S59.5,33.3,50.2,33.3L50.2,33.3z"/>
			</g>
			<g>
				<path fill="#2A4178" d="M17,61.9c1.2,0,2.3,0.5,3.2,1.3c0.8,0.8,1.3,2,1.3,3.2c0,1.2-0.5,2.3-1.3,3.2c-0.8,0.8-2,1.3-3.2,1.3
					c-1.2,0-2.3-0.5-3.2-1.3s-1.3-2-1.3-3.2c0-1.2,0.5-2.3,1.3-3.2S15.7,61.9,17,61.9 M17,60.4c-1.5,0-3.1,0.6-4.2,1.8
					c-2.3,2.3-2.3,6.1,0,8.5c1.2,1.2,2.7,1.8,4.2,1.8s3.1-0.6,4.2-1.8c2.3-2.3,2.3-6.1,0-8.5C20,61,18.5,60.4,17,60.4L17,60.4z"/>
			</g>
			<g>
				<path fill="#2A4178" d="M83.4,29.3c1.2,0,2.3,0.5,3.2,1.3c1.8,1.8,1.8,4.6,0,6.4c-0.8,0.8-2,1.3-3.2,1.3c-1.2,0-2.3-0.5-3.2-1.3
					c-1.8-1.8-1.8-4.6,0-6.4C81,29.7,82.2,29.3,83.4,29.3 M83.4,27.8c-1.5,0-3.1,0.6-4.2,1.8c-2.3,2.3-2.3,6.1,0,8.5
					c1.2,1.2,2.7,1.8,4.2,1.8c1.5,0,3.1-0.6,4.2-1.8c2.3-2.3,2.3-6.1,0-8.5C86.4,28.4,84.9,27.8,83.4,27.8L83.4,27.8z"/>
			</g>
			<g>
				<g>
					<path fill="none" stroke="#009EE2" stroke-width="1.5" stroke-miterlimit="10" d="M56.3,56.9H44.7c-0.4,0-0.8-0.3-0.9-0.8
						l-2-11c-0.1-0.6,0.3-1.1,0.9-1.1h15.5c0.6,0,1,0.5,0.9,1.1l-2,11C57.1,56.6,56.7,56.9,56.3,56.9z"/>
					<line fill="none" stroke="#009EE2" stroke-width="1.5" stroke-miterlimit="10" x1="42.3" y1="47" x2="58.7" y2="47"/>
					<g>
						<line fill="none" stroke="#FFFFFF" stroke-miterlimit="10" x1="48" y1="49.6" x2="48" y2="53.7"/>
						<line fill="none" stroke="#FFFFFF" stroke-miterlimit="10" x1="52.4" y1="49.6" x2="52.4" y2="53.7"/>
					</g>
					<g>
						<line fill="none" stroke="#009EE2" stroke-width="1.5" stroke-miterlimit="10" x1="46.4" y1="44.3" x2="48.7" y2="39.9"/>
						<line fill="none" stroke="#009EE2" stroke-width="1.5" stroke-miterlimit="10" x1="54.6" y1="44.3" x2="52.3" y2="39.9"/>
					</g>
				</g>
			</g>
			<line fill="none" stroke="#2A4178" stroke-width="1.5" stroke-miterlimit="10" x1="50.2" y1="21.1" x2="50.2" y2="33.3"/>
			<line fill="none" stroke="#2A4178" stroke-width="1.5" stroke-miterlimit="10" x1="50.2" y1="66.9" x2="50.2" y2="79.1"/>
			<line fill="none" stroke="#2A4178" stroke-width="1.5" stroke-miterlimit="10" x1="64.6" y1="57.5" x2="80.1" y2="65.4"/>
			<line fill="none" stroke="#2A4178" stroke-width="1.5" stroke-miterlimit="10" x1="20.1" y1="34.9" x2="35.4" y2="42.7"/>
			<polyline fill="none" stroke="#2A4178" stroke-width="1.5" stroke-miterlimit="10" points="63.2,40.4 72.5,33.5 77.5,33.5 			"/>
			<polyline fill="none" stroke="#2A4178" stroke-width="1.5" stroke-miterlimit="10" points="22.6,66.9 27.9,66.7 37,59.9 			"/>
		</g>
	</g>
	<g display="inline">
		<path fill="#2A4178" d="M50.2,80.6c1.4,0,2.5,1.1,2.5,2.5s-1.1,2.5-2.5,2.5s-2.5-1.1-2.5-2.5S48.8,80.6,50.2,80.6 M50.2,79.1
			c-2.2,0-4,1.8-4,4s1.8,4,4,4s4-1.8,4-4S52.4,79.1,50.2,79.1L50.2,79.1z"/>
	</g>
	<g display="inline">
		<path fill="#2A4178" d="M50.2,14.6c1.4,0,2.5,1.1,2.5,2.5s-1.1,2.5-2.5,2.5s-2.5-1.1-2.5-2.5S48.8,14.6,50.2,14.6 M50.2,13.1
			c-2.2,0-4,1.8-4,4s1.8,4,4,4s4-1.8,4-4S52.4,13.1,50.2,13.1L50.2,13.1z"/>
	</g>
	<g display="inline">
		<path fill="#2A4178" d="M17,30.9c0.7,0,1.3,0.3,1.8,0.7c1,1,1,2.6,0,3.5c-0.5,0.5-1.1,0.7-1.8,0.7s-1.3-0.3-1.8-0.7
			c-1-1-1-2.6,0-3.5C15.7,31.1,16.4,30.9,17,30.9 M17,29.4c-1,0-2,0.4-2.8,1.2c-1.6,1.6-1.6,4.1,0,5.7C15,37,16,37.4,17,37.4
			s2-0.4,2.8-1.2c1.6-1.6,1.6-4.1,0-5.7C19.1,29.8,18.1,29.4,17,29.4L17,29.4z"/>
	</g>
	<g display="inline">
		<path fill="#2A4178" d="M83.4,64.5c0.7,0,1.3,0.3,1.8,0.7s0.7,1.1,0.7,1.8c0,0.7-0.3,1.3-0.7,1.8s-1.1,0.7-1.8,0.7
			c-0.7,0-1.3-0.3-1.8-0.7s-0.7-1.1-0.7-1.8c0-0.7,0.3-1.3,0.7-1.8S82.7,64.5,83.4,64.5 M83.4,63c-1,0-2,0.4-2.8,1.2
			c-1.6,1.6-1.6,4.1,0,5.7c0.8,0.8,1.8,1.2,2.8,1.2s2-0.4,2.8-1.2c1.6-1.6,1.6-4.1,0-5.7C85.4,63.4,84.4,63,83.4,63L83.4,63z"/>
	</g>
</g>
<g id="Security" display="none">
	<path display="inline" fill="#009EE2" d="M50.2,70.8L50.2,70.8c-9.3,0-16.9-7.5-16.9-16.9V41.8c0-2.4,2-4.4,4.4-4.4h24.9
		c2.4,0,4.4,2,4.4,4.4v12.1C67,63.2,59.5,70.8,50.2,70.8z"/>
	<g display="inline">
		<g>
			<g>
				<path fill="#2A4178" d="M50.2,18.6c17.4,0,31.5,14.1,31.5,31.5c0,17.4-14.1,31.5-31.5,31.5c-17.4,0-31.5-14.1-31.5-31.5
					C18.7,32.7,32.8,18.6,50.2,18.6 M50.2,17.1L50.2,17.1c-18.2,0-33,14.8-33,33v0c0,18.2,14.8,33,33,33h0c18.2,0,33-14.8,33-33v0
					C83.1,31.8,68.4,17.1,50.2,17.1L50.2,17.1z"/>
			</g>
			<g>
				<path fill="none" stroke="#009EE2" stroke-width="1.5" stroke-miterlimit="10" d="M44.7,37.3v-2.5c0-3,2.4-5.5,5.5-5.5h0
					c3,0,5.5,2.4,5.5,5.5l0,2.3"/>
			</g>
			<circle fill="none" stroke="#FFFFFF" stroke-width="1.5" stroke-miterlimit="10" cx="50.2" cy="50" r="4"/>
			<line fill="none" stroke="#FFFFFF" stroke-width="1.5" stroke-miterlimit="10" x1="50.2" y1="62.5" x2="50.2" y2="54"/>
		</g>
	</g>
</g>
<g id="Steel_and_Mining" display="none">
	<g display="inline">
		<g>
			<g>
				<path fill="#2A4178" d="M82.2,18.7v63.9H18.4l14.1-22l16.1,7.6l1.4,0.7l0.6-1.4l17.1-40.1L82.2,18.7 M83.7,16.1L66.4,26.2
					L49.2,66.8l-17.3-8.1L15.7,84.1h68V16.1L83.7,16.1z"/>
			</g>
			<g>
				<polyline fill="#009EE2" points="44.8,26.3 48.6,23 50.9,25.5 46.8,29.1 				"/>
				<polyline fill="#009EE2" points="42,28.7 16.7,51 18.9,53.5 44.3,31.3 				"/>
				<polyline fill="#009EE2" points="44.8,26.3 38,16.6 34.3,19.9 42,28.7 				"/>
				<line fill="#009EE2" x1="42" y1="28.7" x2="44.3" y2="31.3"/>
				<polyline fill="#009EE2" points="44.3,31.3 52.1,40.2 53.6,38.8 46.8,29.1 				"/>
				<polygon fill="#009EE2" points="46.8,29.1 47.4,30.2 45,32.1 42,28.6 45,26.1 46,26.1 				"/>
			</g>
			<g>
				
					<rect x="36.5" y="44.4" transform="matrix(0.591 -0.8067 0.8067 0.591 -21.5421 49.622)" fill="#2A4178" width="3.4" height="3.4"/>
			</g>
			<g>
				
					<rect x="46.5" y="54.4" transform="matrix(0.189 -0.982 0.982 0.189 -15.986 92.751)" fill="#2A4178" width="3.4" height="3.4"/>
			</g>
			<g>
				
					<rect x="57.5" y="32.4" transform="matrix(4.287219e-02 -0.9991 0.9991 4.287219e-02 22.603 91.7019)" fill="#2A4178" width="3.4" height="3.4"/>
			</g>
		</g>
	</g>
</g>
<g id="Project_highlights" display="none">
	<g display="inline">
		<g>
			<path fill="#009EE2" d="M36.7,40.8c0,4.8-3.3,10.6-7.3,10.6s-7.3-5.7-7.3-10.6s3.3-7,7.3-7S36.7,35.9,36.7,40.8z"/>
			<path fill="#009EE2" d="M34.5,54.2c-1.3,2-3.1,3.4-5.1,3.4s-3.8-1.4-5.1-3.4h0c-6.9,0-12.5,5.6-12.5,12.5v1.2H47v-1.2
				C47,59.7,41.4,54.2,34.5,54.2L34.5,54.2z"/>
		</g>
		<g>
			<polyline fill="none" stroke="#2A4178" stroke-width="1.5" stroke-miterlimit="10" points="78.9,17.3 70.5,17.3 70.5,34.3 
				87.5,34.3 87.5,25.8 			"/>
			<polyline fill="none" stroke="#2A4178" stroke-width="1.5" stroke-miterlimit="10" points="87.5,50.5 87.5,59 70.5,59 70.5,42 
				78.9,42 			"/>
			<rect x="70.5" y="66.8" fill="none" stroke="#2A4178" stroke-width="1.5" stroke-miterlimit="10" width="17" height="17"/>
			<polyline fill="none" stroke="#2A4178" stroke-width="1.5" stroke-miterlimit="10" points="87.4,41.1 79.3,51.2 75.2,47.9 			"/>
			<polyline fill="none" stroke="#2A4178" stroke-width="1.5" stroke-miterlimit="10" points="87.4,16.1 79.3,26.2 75.2,22.9 			"/>
			<path fill="none" stroke="#2A4178" stroke-width="1.5" stroke-miterlimit="10" d="M88.5,26.3"/>
		</g>
		<g>
			<line fill="none" stroke="#2A4178" stroke-width="1.5" stroke-miterlimit="10" x1="45.5" y1="50.5" x2="62.5" y2="50.5"/>
			<polyline fill="none" stroke="#2A4178" stroke-width="1.5" stroke-miterlimit="10" points="61.5,25 53,25 53,76 61.5,76 			"/>
		</g>
	</g>
</g>
<g id="Event" display="none">
	<g display="inline">
		<path fill="none" stroke="#294179" stroke-width="1.5" stroke-miterlimit="10" d="M69.1,79.8H30.9c-8.3,0-14.9-6.7-14.9-14.9v0
			c0-8.3,6.7-14.9,14.9-14.9h38.1"/>
		<g>
			<g>
				<g>
					<circle fill="#009EE2" cx="66.7" cy="79.7" r="4.3"/>
				</g>
				<g>
					<circle fill="#009EE2" cx="50" cy="79.7" r="4.3"/>
				</g>
				<g>
					<circle fill="#009EE2" cx="33.3" cy="79.7" r="4.3"/>
				</g>
			</g>
		</g>
		<path fill="none" stroke="#294179" stroke-width="1.5" stroke-miterlimit="10" d="M69.1,49.8c8.3,0,14.9-6.7,14.9-14.9v0
			c0-8.3-6.7-14.9-14.9-14.9H50.8"/>
		<g>
			<g>
				<circle fill="#009EE2" cx="66.7" cy="50.5" r="4.3"/>
			</g>
			<g>
				<circle fill="#009EE2" cx="50" cy="50.5" r="4.3"/>
			</g>
			<g>
				<circle fill="#009EE2" cx="33.3" cy="50.5" r="4.3"/>
			</g>
		</g>
		<g>
			<circle fill="#009EE2" cx="66.7" cy="20.3" r="4.3"/>
		</g>
		<g>
			<circle fill="#009EE2" cx="50" cy="20.3" r="4.3"/>
		</g>
	</g>
</g>
<g id="Date" display="none">
	<g display="inline">
		<g>
			<path fill="none" stroke="#294179" stroke-width="1.5" stroke-miterlimit="10" d="M75.9,77.9h-51V35.4h51V77.9z"/>
			<g>
				<path fill="#008EC2" d="M66.8,22.8h-0.2c-1.1,0-2-0.9-2-2v-4.5c0-1.1,0.9-2,2-2h0.2c1.1,0,2,0.9,2,2v4.5
					C68.8,21.9,67.9,22.8,66.8,22.8z"/>
			</g>
			<g>
				<path fill="#008EC2" d="M33.5,22.8h-0.2c-1.1,0-2-0.9-2-2v-4.5c0-1.1,0.9-2,2-2h0.2c1.1,0,2,0.9,2,2v4.5
					C35.5,21.9,34.6,22.8,33.5,22.8z"/>
			</g>
			<rect x="29" y="43.5" fill="#008EC2" width="8.5" height="8.5"/>
			<rect x="45.8" y="43.5" fill="#008EC2" width="8.5" height="8.5"/>
			<rect x="62.4" y="43.5" fill="#008EC2" width="8.5" height="8.5"/>
			<rect x="29" y="60.1" fill="#008EC2" width="8.5" height="8.5"/>
			<rect x="45.8" y="60.1" fill="#008EC2" width="8.5" height="8.5"/>
			<rect x="62.4" y="60.1" fill="#008EC2" width="8.5" height="8.5"/>
			<path fill="none" stroke="#294179" stroke-width="1.5" stroke-miterlimit="10" d="M80.9,17.7H70.8v4.8c0,2.2-1.8,4-4,4h-0.4
				c-2.2,0-4-1.8-4-4v-4.8h-2H37.7h-0.1v4.8c0,2.2-1.8,4-4,4h-0.4c-2.2,0-4-1.8-4-4v-4.8h-10c-1.7,0-3.1,1.4-3.1,3.1v61.8
				c0,1.7,1.4,3.1,3.1,3.1h61.9c1.7,0,3.1-1.4,3.1-3.1V20.8C84,19.1,82.6,17.7,80.9,17.7z M75.9,77.9h-51V35.4h51V77.9z"/>
		</g>
	</g>
</g>
<g id="Numbers" display="none">
	<g display="inline">
		<g>
			<path fill="#149BD7" d="M28.2,40.3c0,4.7-3.1,10.3-7,10.3s-7-5.6-7-10.3s3.1-6.7,7-6.7S28.2,35.6,28.2,40.3z"/>
			<path fill="#149BD7" d="M20.2,66.5H4.1v-1.1c0-6.7,5.4-12.1,12.1-12.1h0c1.3,1.9,3,3.3,4.9,3.3s3.7-1.4,4.9-3.3h0
				c3.4,0,6.4,1.4,8.6,3.6l-6.7,2.4L22.1,64L20.2,66.5z"/>
		</g>
		<g>
			<path fill="#149BD7" d="M85.9,40.3c0,4.7-3.1,10.3-7,10.3c-3.9,0-7-5.6-7-10.3s3.1-6.7,7-6.7C82.8,33.5,85.9,35.6,85.9,40.3z"/>
			<path fill="#149BD7" d="M65,57.2c2.2-2.4,5.4-3.9,8.9-3.9h0c1.3,1.9,3,3.3,4.9,3.3s3.7-1.4,4.9-3.3h0c6.7,0,12.1,5.4,12.1,12.1
				v1.1h-17l-3.4-3.9l-7.8-4.4L65,57.2z"/>
		</g>
		<g>
			<path fill="none" stroke="#294179" stroke-width="1.5" stroke-miterlimit="10" d="M63.5,30.6c0,9.4-6.3,20.5-14.1,20.5
				S35.4,40,35.4,30.6s6.3-13.5,14.1-13.5S63.5,21.2,63.5,30.6z"/>
			<path fill="none" stroke="#294179" stroke-width="1.5" stroke-miterlimit="10" d="M59.3,56.5c-2.5,3.9-6,6.6-9.9,6.6
				s-7.3-2.7-9.9-6.6h0c-13.3,0-24.1,10.8-24.1,24.1v2.3h68v-2.3C83.5,67.3,72.6,56.5,59.3,56.5L59.3,56.5z"/>
		</g>
	</g>
</g>
<g id="Spaceship" display="none">
	<g display="inline">
		<polyline fill="#0590C0" points="54.2,76.2 50,83.6 45.8,76.2 		"/>
		<g>
			<g>
				<g>
					<path fill="none" stroke="#294179" stroke-width="1.5" stroke-miterlimit="10" d="M67.4,34.9c0-14.5-16.1-24.8-17.5-25.1
						C48.7,10,32.5,20.4,32.5,34.9V38c0,5.7,2.8,20.9,7,29.1v8.7h20.8v-8.7c4.3-8.1,7-23.3,7-29.1V34.9z"/>
				</g>
				<line fill="none" stroke="#294179" stroke-width="1.5" stroke-miterlimit="10" x1="39" y1="67.1" x2="49.8" y2="67.1"/>
				<line fill="none" stroke="#294179" stroke-width="1.5" stroke-miterlimit="10" x1="60" y1="67.1" x2="55.5" y2="67.1"/>
				<line fill="none" stroke="#294179" stroke-width="1.5" stroke-miterlimit="10" x1="66" y1="26.8" x2="58.5" y2="26.8"/>
				<line fill="none" stroke="#294179" stroke-width="1.5" stroke-miterlimit="10" x1="33.8" y1="26.8" x2="47.2" y2="26.8"/>
			</g>
			<circle fill="#0590C0" cx="49.9" cy="43" r="8.5"/>
			<polyline fill="none" stroke="#294179" stroke-width="1.5" stroke-miterlimit="10" points="32.9,43.2 24.6,59.7 33.3,86.2 
				34.3,71.1 39.4,71.1 			"/>
			<polyline fill="none" stroke="#294179" stroke-width="1.5" stroke-miterlimit="10" points="67.1,43.2 75.4,59.7 66.7,86.2 
				65.7,71.1 60.6,71.1 			"/>
			<polyline fill="none" stroke="#294179" stroke-width="1.5" stroke-miterlimit="10" points="32.9,43.2 24.6,59.7 33.3,86.2 
				34.3,71.1 39.4,71.1 			"/>
			<polyline fill="none" stroke="#294179" stroke-width="1.5" stroke-miterlimit="10" points="67.1,43.2 75.4,59.7 66.7,86.2 
				65.7,71.1 60.6,71.1 			"/>
		</g>
		<polyline fill="none" stroke="#294179" stroke-width="1.5" stroke-miterlimit="10" points="58.5,75.5 50,90.2 41.5,75.5 		"/>
	</g>
</g>
<g id="Address" display="none">
	<g display="inline">
		<g>
			<g>
				<path fill="none" stroke="#294179" stroke-width="1.5" stroke-miterlimit="10" d="M68.2,46.7L68.2,46.7c1.6-2.9,2.5-6.3,2.5-9.9
					C70.8,25.3,61.5,16,50,16s-20.8,9.3-20.8,20.8c0,3.6,0.9,7,2.5,9.9"/>
				<polyline fill="none" stroke="#294179" stroke-width="1.5" stroke-miterlimit="10" points="31.8,46.7 31.6,46.7 50.3,84 
					68.2,46.7 				"/>
			</g>
		</g>
		<circle fill="#009EE2" cx="49.9" cy="38.7" r="8.5"/>
	</g>
</g>
<g id="Email" display="none">
	<g display="inline">
		<polygon fill="#009EE2" points="33,39.7 50,47.9 67,39.8 67,31.6 33,31.6 		"/>
		<path fill="none" stroke="#294179" stroke-width="1.5" stroke-miterlimit="10" d="M80.7,84H19.3c-1.8,0-3.3-1.5-3.3-3.3V32.2
			L50,16l34,16.2v48.4C84,82.5,82.5,84,80.7,84z"/>
		<polyline fill="none" stroke="#294179" stroke-width="1.5" stroke-miterlimit="10" points="16,32.3 50,48.5 84,32.3 		"/>
		<line fill="none" stroke="#294179" stroke-width="1.5" stroke-miterlimit="10" x1="43.7" y1="45.6" x2="16.9" y2="82.1"/>
		<line fill="none" stroke="#294179" stroke-width="1.5" stroke-miterlimit="10" x1="83.1" y1="82.1" x2="56.3" y2="45.6"/>
	</g>
</g>
<g id="Interior" display="none">
	<g display="inline">
		<path fill="none" stroke="#294179" stroke-width="1.5" stroke-miterlimit="10" d="M80.7,83.8H19.3c-1.8,0-3.3-1.5-3.3-3.3V32
			l34-16.2L84,32v48.4C84,82.3,82.5,83.8,80.7,83.8z"/>
		<g>
			<path fill="#009EE2" d="M71.7,47c-1.8,0.1-3.2,1.2-3.2,2.4v6.8h-37l0-6.8c0-1.2-1.3-2.3-3.2-2.4c-2.1-0.1-3.8,1-3.8,2.3v6.9v8.2
				v8.8c0,1,1.2,1.8,2.7,1.8h45.5c1.5,0,2.7-0.8,2.7-1.8v-8.8v-8.2v-6.9C75.5,47.9,73.7,46.8,71.7,47z"/>
			<path fill="#009EE2" d="M32.4,44.9c1.5,0,2.7,0.8,2.7,1.8v7.5h30.6v-7.5c0-1,1.2-1.8,2.7-1.8c0.1,0,0.1,0,0.2,0v-2.1
				c0-1-1.2-1.8-2.7-1.8H34.9c-1.5,0-2.7,0.8-2.7,1.8v2.1C32.3,44.9,32.3,44.9,32.4,44.9z"/>
		</g>
	</g>
</g>
<g id="Location" display="none">
	<g display="inline">
		<g>
			<g>
				<path fill="#294179" d="M64.9,52.1l17.6,6.8v22.8l-17.6-6.8V52.1 M63.4,49.9v26l20.6,8v-26L63.4,49.9L63.4,49.9z"/>
			</g>
			<g>
				<path fill="#294179" d="M17.5,52.1l17.6,6.8v22.8l-17.6-6.8V52.1 M16,49.9v26l20.6,8v-26L16,49.9L16,49.9z"/>
			</g>
		</g>
		<polygon fill="#009EE2" points="50.4,67.6 44.7,56.2 39.9,58.1 39.9,84.1 60.5,76.1 60.5,50.1 58.4,50.9 		"/>
		<g>
			<g>
				<g>
					<path fill="none" stroke="#294179" stroke-width="1.5" stroke-miterlimit="10" d="M63.7,39.4L63.7,39.4
						c1.2-2.2,1.9-4.7,1.9-7.4c0-8.6-7-15.6-15.6-15.6s-15.6,7-15.6,15.6c0,2.7,0.7,5.2,1.9,7.4"/>
					<polyline fill="none" stroke="#294179" stroke-width="1.5" stroke-miterlimit="10" points="36.3,39.4 36.2,39.4 50.2,67.4 
						63.7,39.4 					"/>
				</g>
			</g>
			<circle fill="#009EE2" cx="49.9" cy="33.4" r="6.4"/>
		</g>
	</g>
</g>
<g id="Building" display="none">
	<g display="inline">
		<rect x="41.3" y="58.2" fill="#009EE2" width="17" height="25.5"/>
		<g>
			<polyline fill="none" stroke="#294179" stroke-width="1.5" stroke-miterlimit="10" points="24.5,84 24.5,16 75.5,16 75.5,84 			
				"/>
			<line fill="none" stroke="#294179" stroke-width="1.5" stroke-miterlimit="10" x1="16" y1="84" x2="84" y2="84"/>
		</g>
		<rect x="33.4" y="24.9" fill="#009EE2" width="8.5" height="8.5"/>
		<rect x="58.4" y="24.9" fill="#009EE2" width="8.5" height="8.5"/>
		<rect x="45.9" y="24.9" fill="#009EE2" width="8.5" height="8.5"/>
		<rect x="33.4" y="41.9" fill="#009EE2" width="8.5" height="8.5"/>
		<rect x="58.4" y="41.9" fill="#009EE2" width="8.5" height="8.5"/>
		<rect x="45.9" y="41.9" fill="#009EE2" width="8.5" height="8.5"/>
	</g>
</g>
<g id="Solutions" display="none">
	<g display="inline">
		<g>
			<line fill="none" stroke="#2A4178" stroke-width="1.5" stroke-miterlimit="10" x1="77.5" y1="39.8" x2="86.5" y2="37.3"/>
			<line fill="none" stroke="#2A4178" stroke-width="1.5" stroke-miterlimit="10" x1="22.5" y1="39.8" x2="13.5" y2="37.3"/>
			<line fill="none" stroke="#2A4178" stroke-width="1.5" stroke-miterlimit="10" x1="31.4" y1="25.8" x2="24.6" y2="19.3"/>
			<line fill="none" stroke="#2A4178" stroke-width="1.5" stroke-miterlimit="10" x1="68.6" y1="25.8" x2="75.4" y2="19.3"/>
			<line fill="none" stroke="#2A4178" stroke-width="1.5" stroke-miterlimit="10" x1="50.2" y1="10.8" x2="50.2" y2="19.3"/>
		</g>
		<g>
			<path fill="none" stroke="#2A4178" stroke-width="1.5" stroke-miterlimit="10" d="M72.7,45.9c0-12.5-10.1-22.7-22.7-22.7
				S27.3,33.3,27.3,45.9c0,4.5,1.3,8.7,3.6,12.3l10.3,16.1h17.5l10.3-16.1C71.3,54.6,72.7,50.4,72.7,45.9z"/>
			<polygon fill="none" stroke="#2A4178" stroke-width="1.5" stroke-miterlimit="10" points="55.5,85.4 44.5,85.4 41.5,82 
				41.5,77.9 58.5,77.9 58.5,82.4 			"/>
			<line fill="none" stroke="#2A4178" stroke-width="1.5" stroke-miterlimit="10" x1="50" y1="81.2" x2="41" y2="81.2"/>
			<line fill="none" stroke="#2A4178" stroke-width="1.5" stroke-miterlimit="10" x1="45.8" y1="89.2" x2="54.2" y2="89.2"/>
			<path fill="#009EE2" d="M52.6,57.2c0-0.2,0.1-0.4,0.1-0.6c0-1.5-1.2-2.6-2.6-2.6c-1.5,0-2.6,1.2-2.6,2.6c0,0.2,0,0.4,0.1,0.6
				h-4.3V53c-0.3,0.1-0.6,0.2-0.9,0.2c-1.5,0-2.6-1.2-2.6-2.6c0-1.5,1.2-2.6,2.6-2.6c0.3,0,0.6,0.1,0.9,0.2v-4.6h4.3
				c0-0.2-0.1-0.4-0.1-0.6c0-1.5,1.2-2.6,2.6-2.6c1.5,0,2.6,1.2,2.6,2.6c0,0.2,0,0.4-0.1,0.6h4.3V48c0.2-0.1,0.5-0.1,0.7-0.1
				c1.5,0,2.6,1.2,2.6,2.6c0,1.5-1.2,2.6-2.6,2.6c-0.3,0-0.5,0-0.7-0.1v4.2H52.6z"/>
		</g>
	</g>
</g>
<g id="Problems">
	<g>
		<path fill="none" stroke="#2A4178" stroke-width="1.5" stroke-miterlimit="10" d="M45.3,38.2c-0.3,0.1-0.7,0.1-1,0.1
			c-2.4,0-4.3-1.9-4.3-4.3c0-2.4,1.9-4.3,4.3-4.3c0.3,0,0.7,0,1,0.1v-7.1h-6.9c0.2-0.5,0.3-0.9,0.3-1.4c0-2.4-1.9-4.3-4.3-4.3
			s-4.3,1.9-4.3,4.3c0,0.5,0.1,1,0.3,1.4h-7.6v7.1c-0.3-0.1-0.7-0.1-1-0.1c-2.4,0-4.3,1.9-4.3,4.3c0,2.4,1.9,4.3,4.3,4.3
			c0.3,0,0.7,0,1-0.1v7.1h7.5c-0.1,0.4-0.2,0.8-0.2,1.2c0,2.4,1.9,4.3,4.3,4.3s4.3-1.9,4.3-4.3c0-0.4-0.1-0.8-0.2-1.2h6.9V38.2z"/>
		<path fill="none" stroke="#2A4178" stroke-width="1.5" stroke-miterlimit="10" d="M38.3,54.5c0.1,0.3,0.1,0.7,0.1,1
			c0,2.4-1.9,4.3-4.3,4.3c-2.4,0-4.3-1.9-4.3-4.3c0-0.3,0-0.7,0.1-1h-7.1v6.9c-0.5-0.2-0.9-0.3-1.4-0.3c-2.4,0-4.3,1.9-4.3,4.3
			c0,2.4,1.9,4.3,4.3,4.3c0.5,0,1-0.1,1.4-0.3v7.6h7.1c-0.1,0.3-0.1,0.7-0.1,1c0,2.4,1.9,4.3,4.3,4.3c2.4,0,4.3-1.9,4.3-4.3
			c0-0.3,0-0.7-0.1-1h7.1v-7.5c0.4,0.1,0.8,0.2,1.2,0.2c2.4,0,4.3-1.9,4.3-4.3c0-2.4-1.9-4.3-4.3-4.3c-0.4,0-0.8,0.1-1.2,0.2v-6.9
			H38.3z"/>
		<path fill="#009EE2" d="M65.5,58c0.3,0.2,0.6,0.4,0.8,0.6c1.8,1.6,1.9,4.4,0.3,6.1c-1.6,1.8-4.4,1.9-6.1,0.3
			c-0.3-0.2-0.5-0.5-0.7-0.8l-4.8,5.3l5.1,4.7c-0.4,0.2-0.8,0.5-1.2,0.9c-1.6,1.8-1.5,4.5,0.3,6.1c1.8,1.6,4.5,1.5,6.1-0.3
			c0.3-0.4,0.6-0.8,0.8-1.2l5.6,5.1l4.8-5.3c0.2,0.3,0.4,0.5,0.7,0.8c1.8,1.6,4.5,1.5,6.1-0.3c1.6-1.8,1.5-4.5-0.3-6.1
			c-0.3-0.2-0.5-0.4-0.8-0.6l4.8-5.3L81.5,63c0.3-0.2,0.7-0.5,1-0.8c1.6-1.8,1.5-4.5-0.3-6.1c-1.8-1.6-4.5-1.5-6.1,0.3
			c-0.3,0.3-0.5,0.7-0.7,1l-5.1-4.6L65.5,58z"/>
		<path fill="none" stroke="#2A4178" stroke-width="1.5" stroke-miterlimit="10" d="M77,38.2c-0.3,0.1-0.7,0.1-1,0.1
			c-2.4,0-4.3-1.9-4.3-4.3c0-2.4,1.9-4.3,4.3-4.3c0.3,0,0.7,0,1,0.1v-7.1h-6.9c0.2-0.5,0.3-0.9,0.3-1.4c0-2.4-1.9-4.3-4.3-4.3
			c-2.4,0-4.3,1.9-4.3,4.3c0,0.5,0.1,1,0.3,1.4h-7.6v7.1c-0.3-0.1-0.7-0.1-1-0.1c-2.4,0-4.3,1.9-4.3,4.3c0,2.4,1.9,4.3,4.3,4.3
			c0.3,0,0.7,0,1-0.1v7.1h7.5c-0.1,0.4-0.2,0.8-0.2,1.2c0,2.4,1.9,4.3,4.3,4.3c2.4,0,4.3-1.9,4.3-4.3c0-0.4-0.1-0.8-0.2-1.2H77V38.2
			z"/>
	</g>
</g>
</svg>
