<?xml version="1.0" encoding="utf-8"?>
<!-- Generator: Adobe Illustrator 24.0.3, SVG Export Plug-In . SVG Version: 6.00 Build 0)  -->
<svg version="1.1" id="Project_highlights" xmlns="http://www.w3.org/2000/svg" xmlns:xlink="http://www.w3.org/1999/xlink" x="0px"
	 y="0px" width="100px" height="100px" viewBox="0 0 100 100" enable-background="new 0 0 100 100" xml:space="preserve">
<g>
	<g>
		<path fill="#009EE2" d="M36.7,40.8c0,4.8-3.3,10.6-7.3,10.6s-7.3-5.7-7.3-10.6s3.3-7,7.3-7S36.7,35.9,36.7,40.8z"/>
		<path fill="#009EE2" d="M34.5,54.2c-1.3,2-3.1,3.4-5.1,3.4s-3.8-1.4-5.1-3.4l0,0c-6.9,0-12.5,5.6-12.5,12.5v1.2H47v-1.2
			C47,59.7,41.4,54.2,34.5,54.2L34.5,54.2z"/>
	</g>
	<g>
		<polyline fill="none" stroke="#2A4178" stroke-width="1.5" stroke-miterlimit="10" points="78.9,17.3 70.5,17.3 70.5,34.3 
			87.5,34.3 87.5,25.8 		"/>
		<polyline fill="none" stroke="#2A4178" stroke-width="1.5" stroke-miterlimit="10" points="87.5,50.5 87.5,59 70.5,59 70.5,42 
			78.9,42 		"/>
		<rect x="70.5" y="66.8" fill="none" stroke="#2A4178" stroke-width="1.5" stroke-miterlimit="10" width="17" height="17"/>
		<polyline fill="none" stroke="#2A4178" stroke-width="1.5" stroke-miterlimit="10" points="87.4,41.1 79.3,51.2 75.2,47.9 		"/>
		<polyline fill="none" stroke="#2A4178" stroke-width="1.5" stroke-miterlimit="10" points="87.4,16.1 79.3,26.2 75.2,22.9 		"/>
		<path fill="none" stroke="#2A4178" stroke-width="1.5" stroke-miterlimit="10" d="M88.5,26.3"/>
	</g>
	<g>
		<line fill="none" stroke="#2A4178" stroke-width="1.5" stroke-miterlimit="10" x1="45.5" y1="50.5" x2="62.5" y2="50.5"/>
		<polyline fill="none" stroke="#2A4178" stroke-width="1.5" stroke-miterlimit="10" points="61.5,25 53,25 53,76 61.5,76 		"/>
	</g>
</g>
</svg>
