<?xml version="1.0" encoding="utf-8"?>
<!-- Generator: Adobe Illustrator 24.0.3, SVG Export Plug-In . SVG Version: 6.00 Build 0)  -->
<svg version="1.1" id="Solutions" xmlns="http://www.w3.org/2000/svg" xmlns:xlink="http://www.w3.org/1999/xlink" x="0px" y="0px"
	 width="100px" height="100px" viewBox="0 0 100 100" enable-background="new 0 0 100 100" xml:space="preserve">
<g>
	<g>
		<line fill="none" stroke="#2A4178" stroke-width="1.5" stroke-miterlimit="10" x1="77.5" y1="39.8" x2="86.5" y2="37.3"/>
		<line fill="none" stroke="#2A4178" stroke-width="1.5" stroke-miterlimit="10" x1="22.5" y1="39.8" x2="13.5" y2="37.3"/>
		<line fill="none" stroke="#2A4178" stroke-width="1.5" stroke-miterlimit="10" x1="31.4" y1="25.8" x2="24.6" y2="19.3"/>
		<line fill="none" stroke="#2A4178" stroke-width="1.5" stroke-miterlimit="10" x1="68.6" y1="25.8" x2="75.4" y2="19.3"/>
		<line fill="none" stroke="#2A4178" stroke-width="1.5" stroke-miterlimit="10" x1="50.2" y1="10.8" x2="50.2" y2="19.3"/>
	</g>
	<g>
		<path fill="none" stroke="#2A4178" stroke-width="1.5" stroke-miterlimit="10" d="M72.7,45.9c0-12.5-10.1-22.7-22.7-22.7
			S27.3,33.3,27.3,45.9c0,4.5,1.3,8.7,3.6,12.3l10.3,16.1h17.5l10.3-16.1C71.3,54.6,72.7,50.4,72.7,45.9z"/>
		<polygon fill="none" stroke="#2A4178" stroke-width="1.5" stroke-miterlimit="10" points="55.5,85.4 44.5,85.4 41.5,82 41.5,77.9 
			58.5,77.9 58.5,82.4 		"/>
		<line fill="none" stroke="#2A4178" stroke-width="1.5" stroke-miterlimit="10" x1="50" y1="81.2" x2="41" y2="81.2"/>
		<line fill="none" stroke="#2A4178" stroke-width="1.5" stroke-miterlimit="10" x1="45.8" y1="89.2" x2="54.2" y2="89.2"/>
		<path fill="#009EE2" d="M52.6,57.2c0-0.2,0.1-0.4,0.1-0.6c0-1.5-1.2-2.6-2.6-2.6c-1.5,0-2.6,1.2-2.6,2.6c0,0.2,0,0.4,0.1,0.6h-4.3
			V53c-0.3,0.1-0.6,0.2-0.9,0.2c-1.5,0-2.6-1.2-2.6-2.6c0-1.5,1.2-2.6,2.6-2.6c0.3,0,0.6,0.1,0.9,0.2v-4.6h4.3
			c0-0.2-0.1-0.4-0.1-0.6c0-1.5,1.2-2.6,2.6-2.6c1.5,0,2.6,1.2,2.6,2.6c0,0.2,0,0.4-0.1,0.6h4.3V48c0.2-0.1,0.5-0.1,0.7-0.1
			c1.5,0,2.6,1.2,2.6,2.6c0,1.5-1.2,2.6-2.6,2.6c-0.3,0-0.5,0-0.7-0.1v4.2H52.6z"/>
	</g>
</g>
</svg>
