<?xml version="1.0" encoding="utf-8"?>
<!-- Generator: Adobe Illustrator 24.0.3, SVG Export Plug-In . SVG Version: 6.00 Build 0)  -->
<svg version="1.1" id="Testimonial" xmlns="http://www.w3.org/2000/svg" xmlns:xlink="http://www.w3.org/1999/xlink" x="0px"
	 y="0px" width="100px" height="100px" viewBox="0 0 100 100" enable-background="new 0 0 100 100" xml:space="preserve">
<g>
	<g>
		<line fill="none" stroke="#294179" stroke-width="1.5" stroke-miterlimit="10" x1="33.5" y1="33.7" x2="50.5" y2="33.7"/>
		<line fill="none" stroke="#294179" stroke-width="1.5" stroke-miterlimit="10" x1="33.5" y1="49.5" x2="50.5" y2="49.5"/>
		<line fill="none" stroke="#294179" stroke-width="1.5" stroke-miterlimit="10" x1="33.5" y1="66.5" x2="50.5" y2="66.5"/>
	</g>
	<g>
		<path fill="none" stroke="#294179" stroke-width="1.5" stroke-miterlimit="10" d="M50,84.1H10.7c-2,0-3.5-1.6-3.5-3.5v-61
			c0-2,1.6-3.5,3.5-3.5h60.9c2,0,3.5,1.6,3.5,3.5V33"/>
		<g>
			<polygon fill="#1D9CD7" points="75.3,51.8 80.4,62.1 91.8,63.8 83.6,71.8 85.5,83.1 75.3,77.8 65.2,83.1 67.1,71.8 58.9,63.8 
				70.3,62.1 			"/>
		</g>
	</g>
</g>
</svg>
