<?xml version="1.0" encoding="utf-8"?>
<!-- Generator: Adobe Illustrator 24.0.3, SVG Export Plug-In . SVG Version: 6.00 Build 0)  -->
<svg version="1.1" id="User_Goals" xmlns="http://www.w3.org/2000/svg" xmlns:xlink="http://www.w3.org/1999/xlink" x="0px" y="0px"
	 width="100px" height="100px" viewBox="0 0 100 100" enable-background="new 0 0 100 100" xml:space="preserve">
<g>
	<g>
		<g>
			<polyline fill="#009EE2" points="50.1,25.4 67.1,25.4 62.7,21.2 67.1,16.9 50.1,16.9 			"/>
			<line fill="none" stroke="#009EE2" stroke-width="1.5" stroke-miterlimit="10" x1="50.6" y1="16.9" x2="50.6" y2="33.9"/>
		</g>
		<g>
			<polyline fill="none" stroke="#2A4178" stroke-width="1.5" stroke-miterlimit="10" points="37.7,59.4 33.2,50.4 17.2,82.4 
				26.2,82.4 			"/>
			<polyline fill="none" stroke="#2A4178" stroke-width="1.5" stroke-miterlimit="10" points="62.7,57.4 50.7,33.4 37.7,59.4 
				49.2,82.4 50.2,82.4 			"/>
			<polyline fill="none" stroke="#2A4178" stroke-width="1.5" stroke-miterlimit="10" points="26.2,82.4 49.2,82.4 37.7,59.4 			"/>
			<polyline fill="none" stroke="#2A4178" stroke-width="1.5" stroke-miterlimit="10" points="75.3,82.4 83.2,82.4 62.7,41.4 
				58.6,49.5 			"/>
			<polyline fill="none" stroke="#2A4178" stroke-width="1.5" stroke-miterlimit="10" points="50.2,82.4 75.2,82.4 62.7,57.4 			"/>
		</g>
		<polyline fill="none" stroke="#2A4178" stroke-width="1.5" stroke-miterlimit="10" points="36.2,56.4 33.2,60.4 30.2,56.4 		"/>
		<polyline fill="none" stroke="#2A4178" stroke-width="1.5" stroke-miterlimit="10" points="45.6,44 48.2,48.4 51.2,45.4 
			54.2,51.4 56.2,44.4 		"/>
		<polyline fill="none" stroke="#2A4178" stroke-width="1.5" stroke-miterlimit="10" points="59.2,47.4 64.2,51.4 67.2,50.4 		"/>
	</g>
</g>
</svg>
